<svg width="150" height="150" viewBox="0 0 150 150" fill="none" xmlns="http://www.w3.org/2000/svg">
<path d="M28.875 113.25C35.25 108.375 42.375 104.531 50.25 101.719C58.125 98.9062 66.375 97.5 75 97.5C83.625 97.5 91.875 98.9062 99.75 101.719C107.625 104.531 114.75 108.375 121.125 113.25C125.5 108.125 128.906 102.313 131.344 95.8125C133.781 89.3125 135 82.375 135 75C135 58.375 129.156 44.2188 117.469 32.5312C105.781 20.8438 91.625 15 75 15C58.375 15 44.2188 20.8438 32.5312 32.5312C20.8438 44.2188 15 58.375 15 75C15 82.375 16.2188 89.3125 18.6562 95.8125C21.0938 102.313 24.5 108.125 28.875 113.25ZM75 82.5C67.625 82.5 61.4063 79.9688 56.3438 74.9062C51.2813 69.8438 48.75 63.625 48.75 56.25C48.75 48.875 51.2813 42.6563 56.3438 37.5938C61.4063 32.5313 67.625 30 75 30C82.375 30 88.5938 32.5313 93.6562 37.5938C98.7188 42.6563 101.25 48.875 101.25 56.25C101.25 63.625 98.7188 69.8438 93.6562 74.9062C88.5938 79.9688 82.375 82.5 75 82.5ZM75 150C64.625 150 54.875 148.031 45.75 144.094C36.625 140.156 28.6875 134.812 21.9375 128.062C15.1875 121.313 9.84375 113.375 5.90625 104.25C1.96875 95.125 0 85.375 0 75C0 64.625 1.96875 54.875 5.90625 45.75C9.84375 36.625 15.1875 28.6875 21.9375 21.9375C28.6875 15.1875 36.625 9.84375 45.75 5.90625C54.875 1.96875 64.625 0 75 0C85.375 0 95.125 1.96875 104.25 5.90625C113.375 9.84375 121.313 15.1875 128.062 21.9375C134.812 28.6875 140.156 36.625 144.094 45.75C148.031 54.875 150 64.625 150 75C150 85.375 148.031 95.125 144.094 104.25C140.156 113.375 134.812 121.313 128.062 128.062C121.313 134.812 113.375 140.156 104.25 144.094C95.125 148.031 85.375 150 75 150ZM75 135C81.625 135 87.875 134.031 93.75 132.094C99.625 130.156 105 127.375 109.875 123.75C105 120.125 99.625 117.344 93.75 115.406C87.875 113.469 81.625 112.5 75 112.5C68.375 112.5 62.125 113.469 56.25 115.406C50.375 117.344 45 120.125 40.125 123.75C45 127.375 50.375 130.156 56.25 132.094C62.125 134.031 68.375 135 75 135ZM75 67.5C78.25 67.5 80.9375 66.4375 83.0625 64.3125C85.1875 62.1875 86.25 59.5 86.25 56.25C86.25 53 85.1875 50.3125 83.0625 48.1875C80.9375 46.0625 78.25 45 75 45C71.75 45 69.0625 46.0625 66.9375 48.1875C64.8125 50.3125 63.75 53 63.75 56.25C63.75 59.5 64.8125 62.1875 66.9375 64.3125C69.0625 66.4375 71.75 67.5 75 67.5Z" fill="white"/>
</svg>
