<?xml version="1.0" standalone="no"?>
<!DOCTYPE svg PUBLIC "-//W3C//DTD SVG 20010904//EN"
 "http://www.w3.org/TR/2001/REC-SVG-20010904/DTD/svg10.dtd">
<svg version="1.0" xmlns="http://www.w3.org/2000/svg"
 width="490.000000pt" height="489.000000pt" viewBox="0 0 490.000000 489.000000"
 preserveAspectRatio="xMidYMid meet">

<g transform="translate(0.000000,489.000000) scale(0.100000,-0.100000)"
fill="#000000" stroke="none">
<path d="M2963 3936 c-54 -18 -100 -47 -140 -88 l-33 -34 523 -522 523 -523
43 46 c65 71 86 124 85 220 0 100 -24 150 -116 250 l-64 69 45 30 c165 111
186 343 44 477 -140 134 -360 110 -469 -52 l-30 -45 -73 67 c-41 38 -94 78
-119 89 -57 27 -162 35 -219 16z m757 -191 c80 -41 78 -169 -2 -211 -70 -36
-162 11 -175 89 -16 99 86 169 177 122z"/>
<path d="M2765 3330 c-73 -73 -116 -123 -110 -128 6 -5 157 -114 338 -242 180
-129 327 -236 327 -240 0 -3 -29 -34 -64 -69 l-64 -63 -341 243 -341 244 67
67 c37 37 65 69 62 71 -25 21 -194 137 -198 137 -3 0 -29 -34 -58 -74 l-51
-74 84 -59 c46 -32 83 -62 84 -68 0 -5 -36 -46 -80 -90 l-80 -80 341 -244 341
-243 82 81 c45 44 85 81 90 81 8 0 95 -59 172 -117 l31 -23 53 76 c61 88 68
70 -55 157 l-68 49 72 72 71 71 -293 293 -292 292 -120 -120z"/>
<path d="M2081 2974 c-29 -42 -51 -77 -50 -78 2 -2 38 -27 79 -56 41 -29 79
-57 85 -62 5 -5 -24 -42 -75 -93 -46 -46 -82 -86 -79 -88 2 -2 154 -110 337
-241 182 -130 332 -240 332 -244 0 -3 -28 -35 -62 -69 -38 -38 -58 -66 -53
-71 27 -24 184 -132 192 -132 4 0 15 11 23 23 9 12 32 45 52 72 l36 50 -84 60
c-46 32 -84 64 -84 70 0 6 36 46 79 89 l79 79 102 -73 c56 -40 105 -68 109
-64 5 5 29 39 55 76 l47 67 -66 48 c-122 88 -106 86 -178 15 -34 -34 -66 -62
-70 -62 -6 0 -641 448 -676 477 -3 2 23 32 57 66 34 34 62 67 62 72 -1 9 -83
70 -169 127 l-26 17 -54 -75z"/>
<path d="M1777 2670 c-27 -39 -46 -74 -42 -80 3 -5 42 -35 86 -66 l81 -57 64
64 c35 35 64 66 64 69 0 8 -187 140 -197 140 -4 0 -30 -32 -56 -70z"/>
<path d="M1830 2395 l-65 -65 293 -293 292 -292 117 117 c64 65 115 119 113
121 -36 30 -671 477 -677 477 -5 0 -38 -29 -73 -65z"/>
<path d="M1357 2381 c-65 -69 -89 -123 -95 -206 -6 -101 21 -167 106 -257 l66
-69 -133 -133 c-121 -121 -137 -134 -176 -139 -167 -23 -310 -158 -346 -328
-50 -235 128 -476 367 -496 222 -18 421 137 451 352 5 39 18 55 139 176 l133
133 69 -66 c91 -85 156 -112 258 -106 83 6 150 37 212 101 l40 42 -523 522
-523 522 -45 -48z m-69 -1010 c80 -41 122 -111 122 -202 0 -145 -106 -241
-250 -227 -226 22 -275 343 -65 434 46 20 149 17 193 -5z"/>
</g>
</svg>
