<?xml version="1.0" standalone="no"?>
<!DOCTYPE svg PUBLIC "-//W3C//DTD SVG 20010904//EN"
 "http://www.w3.org/TR/2001/REC-SVG-20010904/DTD/svg10.dtd">
<svg version="1.0" xmlns="http://www.w3.org/2000/svg"
 width="306.000000pt" height="250.000000pt" viewBox="0 0 306.000000 250.000000"
 preserveAspectRatio="xMidYMid meet">
<metadata>
Created by potrace 1.16, written by Peter Selinger 2001-2019
</metadata>
<g transform="translate(0.000000,250.000000) scale(0.100000,-0.100000)"
fill="#000000" stroke="none">
<path d="M660 1950 c-26 -26 -25 -62 1 -86 19 -17 39 -19 229 -19 190 0 210 2
229 19 26 24 27 60 1 86 -19 19 -33 20 -230 20 -197 0 -211 -1 -230 -20z"/>
<path d="M1660 1950 c-26 -26 -25 -62 1 -86 19 -17 39 -19 229 -19 190 0 210
2 229 19 26 24 27 60 1 86 -19 19 -33 20 -230 20 -197 0 -211 -1 -230 -20z"/>
<path d="M553 1703 c-53 -18 -134 -105 -151 -160 -8 -29 -12 -161 -12 -455 l0
-415 31 -61 c32 -64 58 -89 131 -122 42 -19 70 -20 839 -20 l796 0 61 31 c64
32 89 58 122 131 18 40 20 67 20 457 0 293 -3 425 -12 454 -7 22 -34 63 -60
93 -82 89 -28 84 -932 83 -675 0 -797 -3 -833 -16z m1650 -124 c57 -26 57 -30
57 -489 l0 -422 -34 -34 -34 -34 -802 0 -802 0 -34 34 -34 34 0 422 c0 376 2
425 17 450 9 16 26 33 37 39 30 14 1597 15 1629 0z"/>
<path d="M1790 1392 c-21 -17 -25 -30 -28 -96 l-4 -76 -67 0 c-78 0 -111 -17
-111 -58 0 -15 4 -32 8 -39 12 -20 60 -33 118 -33 l54 0 0 -54 c0 -58 13 -106
33 -118 22 -14 64 -8 80 10 13 14 17 37 17 89 l0 70 77 5 c65 4 79 9 95 28 22
27 17 67 -9 88 -10 7 -47 12 -90 12 l-73 0 0 73 c0 43 -5 80 -12 90 -21 27
-61 31 -88 9z"/>
<path d="M727 1208 c-27 -21 -31 -61 -9 -89 20 -24 23 -24 203 -27 246 -5 279
3 279 68 0 55 -21 60 -250 60 -150 0 -211 -3 -223 -12z"/>
</g>
</svg>
