<svg width="27" height="27" viewBox="0 0 27 27" fill="none" xmlns="http://www.w3.org/2000/svg">
<mask id="mask0_292_419" style="mask-type:alpha" maskUnits="userSpaceOnUse" x="0" y="0" width="27" height="27">
<rect width="27" height="27" fill="#D9D9D9"/>
</mask>
<g mask="url(#mask0_292_419)">
<path d="M22.4438 23.625C20.1 23.625 17.7844 23.1141 15.4969 22.0922C13.2094 21.0703 11.1281 19.6219 9.25312 17.7469C7.37812 15.8719 5.92969 13.7906 4.90781 11.5031C3.88594 9.21562 3.375 6.9 3.375 4.55625C3.375 4.21875 3.4875 3.9375 3.7125 3.7125C3.9375 3.4875 4.21875 3.375 4.55625 3.375H9.1125C9.375 3.375 9.60938 3.46406 9.81562 3.64219C10.0219 3.82031 10.1438 4.03125 10.1813 4.275L10.9125 8.2125C10.95 8.5125 10.9406 8.76562 10.8844 8.97187C10.8281 9.17812 10.725 9.35625 10.575 9.50625L7.84688 12.2625C8.22188 12.9563 8.66719 13.6266 9.18281 14.2734C9.69844 14.9203 10.2656 15.5438 10.8844 16.1438C11.4656 16.725 12.075 17.2641 12.7125 17.7609C13.35 18.2578 14.025 18.7125 14.7375 19.125L17.3812 16.4813C17.55 16.3125 17.7703 16.1859 18.0422 16.1016C18.3141 16.0172 18.5813 15.9937 18.8438 16.0312L22.725 16.8187C22.9875 16.8938 23.2031 17.0297 23.3719 17.2266C23.5406 17.4234 23.625 17.6438 23.625 17.8875V22.4438C23.625 22.7812 23.5125 23.0625 23.2875 23.2875C23.0625 23.5125 22.7812 23.625 22.4438 23.625ZM6.77813 10.125L8.63438 8.26875L8.15625 5.625H5.65313C5.74688 6.39375 5.87812 7.15313 6.04688 7.90313C6.21563 8.65313 6.45938 9.39375 6.77813 10.125ZM16.8469 20.1938C17.5781 20.5125 18.3234 20.7656 19.0828 20.9531C19.8422 21.1406 20.6063 21.2625 21.375 21.3188V18.8438L18.7313 18.3094L16.8469 20.1938Z" fill="white"/>
</g>
</svg>
