<svg width="50" height="72" viewBox="0 0 50 72" fill="none" xmlns="http://www.w3.org/2000/svg">
<path d="M25 16.0714C27.368 16.0714 29.639 17.0121 31.3135 18.6865C32.9879 20.361 33.9286 22.632 33.9286 25C33.9286 26.1725 33.6976 27.3336 33.2489 28.4168C32.8002 29.5001 32.1425 30.4844 31.3135 31.3135C30.4844 32.1425 29.5001 32.8002 28.4168 33.2489C27.3336 33.6976 26.1725 33.9286 25 33.9286C22.632 33.9286 20.361 32.9879 18.6865 31.3135C17.0121 29.639 16.0714 27.368 16.0714 25C16.0714 22.632 17.0121 20.361 18.6865 18.6865C20.361 17.0121 22.632 16.0714 25 16.0714ZM25 0C31.6304 0 37.9893 2.63392 42.6777 7.32233C47.3661 12.0107 50 18.3696 50 25C50 43.75 25 71.4286 25 71.4286C25 71.4286 0 43.75 0 25C0 18.3696 2.63392 12.0107 7.32233 7.32233C12.0107 2.63392 18.3696 0 25 0ZM25 7.14286C20.264 7.14286 15.722 9.02423 12.3731 12.3731C9.02423 15.722 7.14286 20.264 7.14286 25C7.14286 28.5714 7.14286 35.7143 25 59.6786C42.8571 35.7143 42.8571 28.5714 42.8571 25C42.8571 20.264 40.9758 15.722 37.6269 12.3731C34.278 9.02423 29.736 7.14286 25 7.14286Z" fill="white"/>
</svg>
