<?xml version="1.0" standalone="no"?>
<!DOCTYPE svg PUBLIC "-//W3C//DTD SVG 20010904//EN"
 "http://www.w3.org/TR/2001/REC-SVG-20010904/DTD/svg10.dtd">
<svg version="1.0" xmlns="http://www.w3.org/2000/svg"
 width="504.000000pt" height="282.000000pt" viewBox="0 0 504.000000 282.000000"
 preserveAspectRatio="xMidYMid meet">
<metadata>
Created by potrace 1.16, written by Peter Selinger 2001-2019
</metadata>
<g transform="translate(0.000000,282.000000) scale(0.100000,-0.100000)"
fill="#000000" stroke="none">
<path d="M1446 2114 c-14 -14 -16 -76 -16 -534 0 -458 2 -520 16 -534 12 -12
36 -16 100 -16 l84 0 0 550 0 550 -84 0 c-64 0 -88 -4 -100 -16z"/>
<path d="M1730 1580 l0 -550 684 0 c609 0 686 2 700 16 14 14 16 76 16 534 0
458 -2 520 -16 534 -14 14 -91 16 -700 16 l-684 0 0 -550z"/>
<path d="M1146 1964 c-13 -12 -16 -40 -16 -134 0 -149 0 -150 116 -150 l84 0
0 150 0 150 -84 0 c-64 0 -88 -4 -100 -16z"/>
<path d="M3230 1581 l0 -151 83 0 c45 0 89 -5 97 -10 12 -8 16 -47 20 -217 l5
-208 33 -67 c38 -77 92 -130 170 -166 45 -20 77 -26 157 -30 136 -6 135 -7
135 148 0 145 -3 150 -98 150 -37 0 -74 5 -82 10 -12 7 -16 47 -20 217 -5 198
-7 211 -31 264 -37 79 -90 133 -166 171 -60 29 -75 32 -184 36 l-119 4 0 -151z"/>
<path d="M1146 1464 c-13 -12 -16 -40 -16 -134 0 -149 0 -150 116 -150 l84 0
0 150 0 150 -84 0 c-64 0 -88 -4 -100 -16z"/>
</g>
</svg>
