<svg width="27" height="27" viewBox="0 0 27 27" fill="none" xmlns="http://www.w3.org/2000/svg">
<path d="M2.91667 0C1.30813 0 0 1.30813 0 2.91667V23.3333C0 24.9419 1.30813 26.25 2.91667 26.25H12.5724H16.6455H23.3333C24.9419 26.25 26.25 24.9419 26.25 23.3333V2.91667C26.25 1.30813 24.9419 0 23.3333 0H2.91667ZM2.91667 2.91667H23.3333L23.3362 23.3333H16.6455V17.5513H20.0948L20.6075 13.5779H16.6683V11.0457C16.6683 9.89657 16.9886 9.12028 18.6365 9.12028H20.7186V5.57414C19.705 5.4706 18.6874 5.42026 17.6681 5.42318C14.6435 5.42318 12.5724 7.2692 12.5724 10.6584V13.5836H9.15446V17.557H12.5724V23.3333H2.91667V2.91667Z" fill="white"/>
</svg>
