<?xml version="1.0" standalone="no"?>
<!DOCTYPE svg PUBLIC "-//W3C//DTD SVG 20010904//EN"
 "http://www.w3.org/TR/2001/REC-SVG-20010904/DTD/svg10.dtd">
<svg version="1.0" xmlns="http://www.w3.org/2000/svg"
 width="550.000000pt" height="468.000000pt" viewBox="0 0 550.000000 468.000000"
 preserveAspectRatio="xMidYMid meet">
<metadata>
Created by potrace 1.16, written by Peter Selinger 2001-2019
</metadata>
<g transform="translate(0.000000,468.000000) scale(0.100000,-0.100000)"
fill="#000000" stroke="none">
<path d="M2170 3821 c-74 -11 -140 -44 -194 -97 -86 -87 -105 -162 -106 -415
l0 -156 -64 -7 c-68 -7 -94 -14 -195 -53 -57 -22 -74 -24 -150 -19 -173 13
-163 14 -181 -16 -13 -25 -13 -31 0 -55 23 -40 79 -56 200 -56 96 0 112 2 185
33 49 20 104 35 143 38 l62 5 0 -77 0 -76 -35 0 c-20 0 -76 -16 -126 -35 -118
-47 -191 -53 -310 -29 l-91 18 -19 -23 c-61 -75 34 -131 219 -131 98 0 189 18
252 50 20 10 53 21 73 25 l37 7 0 -306 0 -306 -48 0 c-48 0 -125 -20 -237 -60
-48 -18 -74 -21 -130 -17 -38 3 -82 11 -98 18 -50 23 -100 -25 -83 -79 13 -41
71 -57 201 -57 112 0 126 2 202 32 45 18 107 36 137 39 l56 7 0 -75 0 -75 -42
-7 c-23 -4 -76 -21 -117 -38 -63 -26 -93 -32 -177 -36 -72 -3 -116 0 -152 11
-39 11 -56 12 -73 3 -34 -17 -45 -41 -33 -73 16 -46 85 -67 229 -67 124 -1
163 7 268 53 27 12 60 21 73 21 l24 0 0 -172 c1 -271 18 -344 106 -432 56 -55
120 -86 204 -97 86 -11 1186 -11 1272 0 86 11 147 41 208 102 77 77 93 131 98
321 l4 158 79 0 79 0 0 -103 c0 -90 3 -106 19 -121 38 -34 64 -18 290 184 120
107 225 205 232 218 9 16 10 30 3 46 -5 14 -110 115 -233 225 -178 159 -230
201 -252 201 -50 0 -59 -20 -59 -136 l0 -104 -80 0 -80 0 0 305 0 305 80 0 80
0 0 -104 c0 -116 9 -136 60 -136 24 0 71 38 252 200 123 110 227 211 232 224
5 13 6 31 3 39 -3 8 -108 108 -234 221 -238 215 -259 229 -296 188 -12 -13
-17 -43 -19 -122 l-3 -105 -77 -3 -77 -3 -3 263 c-3 260 -4 264 -30 320 -31
67 -99 137 -163 168 -62 30 -178 42 -355 38 -163 -3 -180 -9 -180 -63 0 -60
12 -63 246 -67 l211 -3 41 -28 c23 -15 54 -46 69 -69 l28 -41 3 -259 3 -258
-53 0 c-106 0 -98 -18 -98 227 0 210 -5 246 -34 265 -6 4 -290 8 -632 8 -589
0 -622 -1 -637 -18 -16 -17 -17 -107 -17 -1094 0 -1029 1 -1076 18 -1091 17
-15 76 -17 638 -17 340 0 624 4 630 8 27 17 34 56 34 177 0 112 2 126 16 121
9 -3 43 -6 76 -6 l59 0 -3 -158 c-3 -154 -4 -160 -31 -200 -15 -23 -46 -54
-69 -69 l-42 -28 -650 -3 c-576 -2 -656 -1 -693 13 -61 24 -93 52 -119 109
l-24 51 0 1095 0 1095 24 50 c27 59 46 77 106 104 40 18 66 21 237 21 l192 0
20 26 c26 33 26 45 2 75 -19 23 -24 24 -188 26 -92 0 -193 -2 -223 -6z m275
-1391 l0 -985 -82 -3 -83 -3 0 991 0 991 83 -3 82 -3 0 -985z m300 0 l0 -985
-87 -3 -88 -3 0 991 0 991 88 -3 87 -3 0 -985z m303 877 c2 -81 0 -108 -10
-111 -7 -2 -41 -9 -76 -15 -35 -7 -69 -14 -77 -18 -13 -4 -15 15 -15 126 l0
132 88 -3 87 -3 3 -108z m302 -31 l0 -145 -47 19 c-27 11 -67 24 -90 30 l-43
11 0 114 0 115 90 0 90 0 0 -144z m831 -313 l131 -118 -64 -60 c-35 -33 -96
-89 -136 -124 l-72 -63 0 66 c0 110 11 106 -313 106 -304 0 -332 4 -427 64
-98 62 -131 77 -180 83 -73 8 -131 -4 -194 -42 l-57 -34 3 92 3 91 50 20 c39
15 74 20 155 20 120 0 160 -12 257 -76 103 -66 108 -67 405 -68 265 0 267 0
282 22 10 14 16 44 16 80 0 32 2 58 5 58 3 0 65 -53 136 -117z m-1131 -477 c0
-333 3 -316 -60 -316 -15 0 -47 -7 -70 -15 -23 -8 -44 -15 -46 -15 -2 0 -4
124 -4 275 l0 275 76 50 c42 28 83 50 90 50 12 0 14 -53 14 -304z m160 254
c16 -12 54 -32 84 -46 l56 -25 0 -275 c0 -216 -3 -275 -12 -272 -7 2 -48 15
-90 28 l-78 25 0 293 c0 160 3 292 6 292 3 0 19 -9 34 -20z m420 -405 l0 -305
-75 0 -75 0 0 305 0 305 75 0 75 0 0 -305z m628 -460 l55 -51 -131 -117 c-72
-64 -133 -117 -136 -117 -3 0 -6 26 -6 58 0 101 16 96 -322 102 -328 6 -337 8
-456 89 -72 48 -111 61 -182 61 -64 0 -128 -19 -167 -50 -14 -11 -30 -20 -34
-20 -5 0 -9 39 -9 86 l0 85 48 22 c40 19 65 22 162 22 104 0 120 -3 173 -27
32 -15 77 -41 101 -58 75 -54 112 -60 393 -60 301 0 293 -3 293 106 l0 66 82
-73 c45 -41 106 -97 136 -124z m-1210 -267 l-3 -163 -87 -3 -88 -3 0 118 0
118 73 47 c112 73 108 77 105 -114z m257 62 l45 -19 0 -106 0 -105 -90 0 -90
0 0 155 0 156 45 -31 c24 -17 65 -39 90 -50z"/>
</g>
</svg>
