<svg width="35" height="37" viewBox="0 0 35 37" fill="none" xmlns="http://www.w3.org/2000/svg">
<path d="M3.01953 13.125C2.46725 13.125 2.01953 13.5727 2.01953 14.125C2.01953 14.6773 2.46725 15.125 3.01953 15.125V13.125ZM31.293 15.125C31.8453 15.125 32.293 14.6773 32.293 14.125C32.293 13.5727 31.8453 13.125 31.293 13.125V15.125ZM3.18913 22.9686C2.63685 22.9686 2.18913 23.4163 2.18913 23.9686C2.18913 24.5209 2.63685 24.9686 3.18913 24.9686V22.9686ZM31.4626 24.9686C32.0149 24.9686 32.4626 24.5209 32.4626 23.9686C32.4626 23.4163 32.0149 22.9686 31.4626 22.9686V24.9686ZM32.3125 18.5C32.3125 27.6894 25.4531 35 17.1562 35V37C26.7051 37 34.3125 28.6405 34.3125 18.5H32.3125ZM17.1562 35C8.85941 35 2 27.6894 2 18.5H0C0 28.6405 7.60739 37 17.1562 37V35ZM2 18.5C2 9.31058 8.85941 2 17.1562 2V0C7.60739 0 0 8.35946 0 18.5H2ZM17.1562 2C25.4531 2 32.3125 9.31058 32.3125 18.5H34.3125C34.3125 8.35946 26.7051 0 17.1562 0V2ZM17.1562 35C16.5402 35 15.8548 34.6951 15.1281 33.9341C14.3991 33.1707 13.6965 32.013 13.0854 30.4999C11.8652 27.4789 11.0879 23.2368 11.0879 18.5H9.08789C9.08789 23.4282 9.89287 27.936 11.2309 31.2489C11.8989 32.9027 12.7194 34.3077 13.6817 35.3154C14.6464 36.3256 15.8204 37 17.1562 37V35ZM11.0879 18.5C11.0879 13.7632 11.8652 9.52106 13.0854 6.50014C13.6965 4.98705 14.3991 3.82927 15.1281 3.06586C15.8548 2.30495 16.5402 2 17.1562 2V0C15.8204 0 14.6464 0.67443 13.6817 1.68461C12.7194 2.6923 11.8989 4.09734 11.2309 5.75112C9.89287 9.06396 9.08789 13.5718 9.08789 18.5H11.0879ZM17.1562 37C18.4921 37 19.6661 36.3256 20.6308 35.3154C21.5931 34.3077 22.4136 32.9027 23.0816 31.2489C24.4196 27.936 25.2246 23.4282 25.2246 18.5H23.2246C23.2246 23.2368 22.4473 27.4789 21.2271 30.4999C20.616 32.013 19.9134 33.1707 19.1844 33.9341C18.4577 34.6951 17.7723 35 17.1562 35V37ZM25.2246 18.5C25.2246 13.5718 24.4196 9.06396 23.0816 5.75112C22.4136 4.09734 21.5931 2.6923 20.6308 1.68461C19.6661 0.67443 18.4921 0 17.1562 0V2C17.7723 2 18.4577 2.30495 19.1844 3.06586C19.9134 3.82927 20.616 4.98705 21.2271 6.50014C22.4473 9.52106 23.2246 13.7632 23.2246 18.5H25.2246ZM3.01953 15.125H31.293V13.125H3.01953V15.125ZM3.18913 24.9686H31.4626V22.9686H3.18913V24.9686Z" fill="white"/>
</svg>
