<?xml version="1.0" standalone="no"?>
<!DOCTYPE svg PUBLIC "-//W3C//DTD SVG 20010904//EN"
 "http://www.w3.org/TR/2001/REC-SVG-20010904/DTD/svg10.dtd">
<svg version="1.0" xmlns="http://www.w3.org/2000/svg"
 width="399.000000pt" height="472.000000pt" viewBox="0 0 399.000000 472.000000"
 preserveAspectRatio="xMidYMid meet">

<g transform="translate(0.000000,472.000000) scale(0.100000,-0.100000)"
fill="#fff" stroke="none">
<path d="M1980 3850 c-390 -50 -729 -268 -927 -596 -250 -413 -206 -976 112
-1449 130 -194 836 -1097 875 -1119 47 -28 133 -28 180 0 38 21 742 921 871
1113 426 632 353 1375 -176 1786 -223 173 -461 260 -740 269 -71 3 -159 1
-195 -4z m330 -154 c96 -15 244 -62 322 -102 274 -139 477 -388 555 -681 23
-87 26 -117 26 -268 1 -125 -4 -189 -16 -244 -41 -175 -110 -339 -208 -491
-92 -143 -835 -1095 -856 -1098 -21 -3 -50 33 -709 888 -183 238 -259 370
-319 554 -50 156 -60 223 -59 401 1 139 4 173 27 258 108 404 448 711 867 782
102 17 267 18 370 1z"/>
<path d="M2015 3106 c-225 -52 -378 -189 -452 -403 -38 -111 -38 -255 0 -366
54 -157 162 -283 300 -351 74 -36 196 -66 267 -66 71 0 193 30 267 66 138 68
246 194 300 351 38 112 38 254 -1 367 -83 242 -288 398 -541 411 -48 3 -104
-1 -140 -9z m220 -150 c87 -23 148 -58 210 -121 221 -222 161 -577 -123 -718
-84 -41 -87 -42 -192 -42 -105 0 -108 1 -192 42 -284 141 -344 496 -123 718
113 114 275 160 420 121z"/>
</g>
</svg>
