<svg width="35" height="35" viewBox="0 0 35 35" fill="none" xmlns="http://www.w3.org/2000/svg">
<mask id="mask0_292_392" style="mask-type:alpha" maskUnits="userSpaceOnUse" x="0" y="0" width="35" height="35">
<rect width="35" height="35" fill="#D9D9D9"/>
</mask>
<g mask="url(#mask0_292_392)">
<path d="M5.83317 29.1668C5.03109 29.1668 4.34446 28.8812 3.77327 28.3101C3.20209 27.7389 2.9165 27.0522 2.9165 26.2502V8.75016C2.9165 7.94808 3.20209 7.26145 3.77327 6.69027C4.34446 6.11909 5.03109 5.8335 5.83317 5.8335H29.1665C29.9686 5.8335 30.6552 6.11909 31.2264 6.69027C31.7976 7.26145 32.0832 7.94808 32.0832 8.75016V26.2502C32.0832 27.0522 31.7976 27.7389 31.2264 28.3101C30.6552 28.8812 29.9686 29.1668 29.1665 29.1668H5.83317ZM17.4998 18.9585L5.83317 11.6668V26.2502H29.1665V11.6668L17.4998 18.9585ZM17.4998 16.0418L29.1665 8.75016H5.83317L17.4998 16.0418ZM5.83317 11.6668V8.75016V26.2502V11.6668Z" fill="white"/>
</g>
</svg>
