<?xml version="1.0" standalone="no"?>
<!DOCTYPE svg PUBLIC "-//W3C//DTD SVG 20010904//EN"
 "http://www.w3.org/TR/2001/REC-SVG-20010904/DTD/svg10.dtd">
<svg version="1.0" xmlns="http://www.w3.org/2000/svg"
 width="331.000000pt" height="287.000000pt" viewBox="0 0 331.000000 287.000000"
 preserveAspectRatio="xMidYMid meet">
<metadata>
Created by potrace 1.16, written by Peter Selinger 2001-2019
</metadata>
<g transform="translate(0.000000,287.000000) scale(0.100000,-0.100000)"
fill="#000000" stroke="none">
<path d="M1546 2240 c-168 -27 -325 -93 -455 -190 -186 -141 -303 -318 -373
-565 -32 -116 -32 -352 1 -475 86 -320 304 -570 603 -689 94 -38 267 -71 368
-71 101 0 274 33 368 71 294 117 513 365 599 677 24 86 27 114 27 252 0 162
-7 201 -60 354 -78 225 -272 437 -499 546 -162 78 -409 117 -579 90z m304
-385 c105 -28 197 -82 279 -164 126 -127 181 -258 181 -435 0 -186 -54 -322
-179 -447 -124 -123 -261 -179 -441 -179 -180 0 -317 56 -441 179 -125 125
-179 261 -179 447 0 177 55 308 181 435 81 81 173 136 274 164 68 18 256 18
325 0z"/>
<path d="M1580 1739 c-74 -20 -120 -41 -120 -55 0 -8 30 -55 66 -104 l66 -90
66 6 c37 3 80 1 97 -4 29 -8 31 -6 97 85 38 51 68 99 68 107 0 14 -48 36 -125
56 -49 12 -167 12 -215 -1z"/>
<path d="M1312 1575 c-50 -56 -81 -117 -102 -200 -20 -79 -26 -180 -12 -202 6
-10 35 -4 124 23 l116 37 5 42 c2 24 14 63 26 87 25 53 26 62 6 78 -8 7 -40
48 -70 91 -31 44 -57 79 -59 79 -2 0 -18 -16 -34 -35z"/>
<path d="M1961 1517 c-39 -52 -71 -98 -71 -103 0 -4 10 -28 21 -52 12 -24 24
-63 26 -87 l5 -42 115 -36 c64 -20 120 -34 124 -31 16 9 9 129 -11 210 -21 82
-66 167 -111 210 l-26 25 -72 -94z"/>
<path d="M1618 1353 c-33 -21 -48 -53 -48 -104 0 -79 41 -119 121 -119 78 0
119 41 119 120 0 51 -15 83 -50 103 -36 22 -107 21 -142 0z"/>
<path d="M1369 1080 c-135 -46 -133 -44 -113 -82 23 -45 108 -132 163 -168 52
-33 151 -70 188 -70 23 0 23 1 23 124 l0 124 -35 12 c-19 6 -54 30 -78 53
l-43 42 -105 -35z"/>
<path d="M1862 1070 c-24 -21 -59 -44 -78 -50 l-34 -12 0 -125 0 -126 48 7
c70 9 165 60 235 126 67 62 115 134 97 145 -12 8 -211 75 -219 75 -4 -1 -25
-18 -49 -40z"/>
</g>
</svg>
