<?xml version="1.0" standalone="no"?>
<!DOCTYPE svg PUBLIC "-//W3C//DTD SVG 20010904//EN"
 "http://www.w3.org/TR/2001/REC-SVG-20010904/DTD/svg10.dtd">
<svg version="1.0" xmlns="http://www.w3.org/2000/svg"
 width="207.000000pt" height="279.000000pt" viewBox="0 0 207.000000 279.000000"
 preserveAspectRatio="xMidYMid meet">
<metadata>
Created by potrace 1.16, written by Peter Selinger 2001-2019
</metadata>
<g transform="translate(0.000000,279.000000) scale(0.100000,-0.100000)"
fill="#000000" stroke="none">
<path d="M310 2391 c-78 -24 -148 -90 -168 -160 -17 -55 -17 -1607 0 -1662 15
-51 69 -114 122 -142 l41 -22 695 0 695 0 41 22 c48 25 97 78 122 131 16 34
17 97 17 842 l0 805 -24 45 c-30 58 -66 97 -116 123 -40 22 -44 22 -720 24
-374 1 -691 -2 -705 -6z m298 -385 c13 -13 17 -36 17 -106 0 -119 -6 -125
-125 -125 -116 0 -124 7 -128 113 -5 125 15 144 146 138 52 -2 78 -8 90 -20z
m996 -62 c9 -8 16 -28 16 -44 0 -60 2 -60 -370 -60 -372 0 -370 0 -370 60 0
60 -2 60 370 60 294 0 341 -2 354 -16z m-879 -379 c14 -13 25 -32 25 -41 0 -9
-50 -68 -112 -131 -84 -85 -118 -113 -137 -113 -37 0 -151 115 -151 151 0 64
64 78 117 27 l33 -32 84 82 c46 45 91 82 100 82 9 0 28 -11 41 -25z m879 -121
c9 -8 16 -28 16 -44 0 -60 2 -60 -370 -60 -372 0 -370 0 -370 60 0 60 -2 60
370 60 294 0 341 -2 354 -16z m-996 -438 c13 -13 17 -36 17 -106 0 -119 -6
-125 -125 -125 -116 0 -124 7 -128 113 -5 125 15 144 146 138 52 -2 78 -8 90
-20z m996 -62 c9 -8 16 -28 16 -44 0 -60 2 -60 -370 -60 -372 0 -370 0 -370
60 0 60 -2 60 370 60 294 0 341 -2 354 -16z"/>
</g>
</svg>
