<?xml version="1.0" standalone="no"?>
<!DOCTYPE svg PUBLIC "-//W3C//DTD SVG 20010904//EN"
 "http://www.w3.org/TR/2001/REC-SVG-20010904/DTD/svg10.dtd">
<svg version="1.0" xmlns="http://www.w3.org/2000/svg"
 width="239.000000pt" height="292.000000pt" viewBox="0 0 239.000000 292.000000"
 preserveAspectRatio="xMidYMid meet">

<g transform="translate(0.000000,292.000000) scale(0.100000,-0.100000)"
fill="#000000" stroke="none">
<path d="M1016 2360 c-168 -27 -325 -93 -455 -190 -186 -141 -303 -318 -373
-565 -32 -116 -32 -352 1 -475 86 -320 304 -570 603 -689 94 -38 267 -71 368
-71 101 0 274 33 368 71 294 117 513 365 599 677 24 86 27 114 27 252 0 162
-7 201 -60 354 -78 225 -272 437 -499 546 -162 78 -409 117 -579 90z m284
-254 c198 -36 393 -167 494 -334 40 -66 92 -197 97 -247 l4 -30 -177 -3 -178
-2 -32 65 -32 65 -313 0 -312 0 -33 -62 -33 -63 -180 0 -180 0 4 30 c5 50 57
181 97 247 21 34 68 92 104 128 174 175 422 250 670 206z m-376 -993 l105
-138 1 -167 0 -168 -23 0 c-34 0 -121 31 -202 73 -153 78 -279 219 -340 380
-29 77 -45 144 -37 152 3 3 92 5 198 5 l192 0 106 -137z m967 102 c-5 -49 -58
-184 -93 -237 -82 -128 -185 -220 -313 -280 -80 -38 -184 -69 -197 -61 -5 2
-8 76 -8 163 l0 158 37 49 c20 26 70 92 111 146 l74 97 197 -2 196 -3 -4 -30z"/>
</g>
</svg>
