<svg width="175" height="68" viewBox="0 0 175 68" fill="none" xmlns="http://www.w3.org/2000/svg">
<path d="M15.6958 0.251228C14.8522 0.623985 14.3814 1.38911 14.5187 2.19348C14.6168 2.8409 15.8528 5.07744 16.3236 5.46981C16.461 5.58753 17.0103 5.80333 17.5204 5.92105C18.4229 6.13685 18.5209 6.23495 19.3057 7.62788C20.2866 9.35432 20.836 9.88403 21.9738 10.1979C23.0529 10.4922 23.1314 10.5511 24.1711 12.356C24.6616 13.1996 25.2502 14.0236 25.5052 14.1805C25.7406 14.3375 31.7244 16.162 38.7871 18.2416C45.8499 20.3016 51.7551 22.0869 51.8924 22.2046C52.0494 22.3223 52.4025 22.9109 52.7164 23.4994C53.4227 24.912 54.0701 25.5202 55.6592 26.2461C57.3268 27.0112 78.2796 32.7399 79.4175 32.7399C80.8301 32.7202 81.7522 32.1317 84.4595 29.5224C85.9506 28.0902 87.1865 27.0504 87.4024 27.0504C87.6182 27.0504 88.9326 28.1491 90.4825 29.6205C91.9735 31.033 93.4842 32.3083 93.8373 32.4652C94.1904 32.6222 94.8967 32.7399 95.3676 32.7399C96.5251 32.7399 118.047 26.8739 119.381 26.1872C120.813 25.4613 121.657 24.6569 122.128 23.5583C122.343 23.0482 122.696 22.4793 122.893 22.3027C123.089 22.1261 129.014 20.3016 136.076 18.222C143.139 16.162 149.103 14.3375 149.358 14.1609C149.613 14.004 150.222 13.1407 150.732 12.2775C151.242 11.3947 151.752 10.6099 151.87 10.5315C151.987 10.453 152.556 10.2372 153.106 10.0802C154.224 9.7467 154.459 9.51127 155.676 7.43169C156.343 6.25456 156.48 6.13685 157.324 5.92105C157.834 5.80333 158.344 5.64638 158.461 5.56791C158.873 5.31286 160.423 2.40929 160.423 1.87958C160.423 1.0556 159.521 0.231609 158.442 0.0746613C157.971 0.0158043 144.159 -0.0234337 127.758 0.0158043L97.9376 0.0746613L96.8978 0.545509C95.7011 1.07521 94.4455 2.40929 94.0923 3.4687C93.9746 3.8807 93.7784 4.31231 93.6607 4.43002C93.5234 4.62621 92.0324 4.68506 87.4612 4.68506C84.1653 4.68506 81.3598 4.60659 81.2421 4.52811C81.144 4.44964 80.8889 3.95917 80.6927 3.42946C80.2023 2.15425 79.2213 1.11445 77.9657 0.545509L76.9456 0.0746613L46.6346 0.0354233C21.1106 -0.0038147 16.2256 0.0354233 15.6958 0.251228ZM46.8504 1.34988C47.7136 1.5853 48.773 2.58586 49.4597 3.80222C49.7344 4.31231 49.9698 4.76354 49.9698 4.80278C49.9698 4.94011 17.6577 4.88125 17.3242 4.76354C16.9318 4.60659 15.637 2.48776 15.637 1.9973C15.637 1.80111 15.7351 1.52645 15.8724 1.38911C16.1863 1.07521 45.7518 1.0556 46.8504 1.34988ZM77.7696 1.6834C78.6916 2.17386 79.4175 3.07633 79.7707 4.07688C79.8884 4.44964 79.9865 4.78316 79.9865 4.80278C79.9865 4.84201 73.473 4.88125 65.5078 4.88125H51.0488L50.3818 3.68451C50.0286 3.01747 49.4597 2.17386 49.1262 1.82073L48.5376 1.13407L62.7416 1.19293L76.9456 1.25178L77.7696 1.6834ZM125.875 1.66378C125.62 1.93844 125.051 2.74281 124.599 3.4687L123.795 4.78316L109.356 4.84201C97.8591 4.88125 94.8967 4.84201 94.8967 4.64583C94.8967 4.5085 95.0733 4.01803 95.2695 3.58641C95.7011 2.64471 96.7409 1.74225 97.7807 1.40873C98.33 1.25178 102.391 1.17331 112.436 1.17331L126.346 1.15369L125.875 1.66378ZM158.873 1.34988C159.07 1.46759 159.246 1.72263 159.246 1.93844C159.246 2.37005 158.167 4.25345 157.716 4.62621C157.48 4.8224 153.871 4.88125 141.158 4.88125C132.231 4.88125 124.913 4.80278 124.913 4.7243C124.913 4.64583 125.286 3.99841 125.757 3.31175C126.346 2.42891 126.836 1.91882 127.444 1.60492L128.307 1.15369H143.394C153.419 1.15369 158.618 1.21255 158.873 1.34988ZM51.0292 6.45075C51.3039 6.88236 51.4804 7.2355 51.402 7.2355C51.3039 7.2355 44.7512 7.66711 36.8252 8.21644C20.0904 9.33471 21.5815 9.4328 20.3063 7.17665C19.8943 6.43113 19.5607 5.78371 19.5607 5.74448C19.5607 5.70524 26.5254 5.666 35.0399 5.666H50.4995L51.0292 6.45075ZM57.3268 6.25456C57.3268 6.68618 57.2287 6.76465 56.444 6.86275C55.9535 6.94122 54.8745 7.0197 54.0309 7.05893C52.5202 7.11779 52.5006 7.11779 52.1279 6.54885C51.912 6.21533 51.7355 5.90143 51.7355 5.80333C51.7355 5.72486 52.9911 5.68562 54.541 5.70524L57.3268 5.7641V6.25456ZM116.634 9.82517L116.674 13.9059H87.4416H58.2097V9.78594V5.666L87.4024 5.70524L116.575 5.7641L116.634 9.82517ZM123.148 5.80333C123.148 5.90143 122.932 6.21533 122.677 6.52923C122.265 7.05893 122.128 7.11779 121.068 7.07855C120.44 7.05893 119.361 6.98046 118.694 6.9216C117.576 6.80389 117.458 6.74503 117.458 6.37228C117.458 6.11723 117.517 5.86219 117.596 5.80333C117.772 5.60715 123.148 5.62676 123.148 5.80333ZM154.577 7.07855C153.282 9.45242 154.852 9.33471 137.979 8.19682C129.995 7.66711 123.442 7.19626 123.403 7.17665C123.383 7.13741 123.579 6.78427 123.854 6.3919L124.344 5.666H139.843H155.362L154.577 7.07855ZM57.3857 8.35377C57.3268 8.88348 57.268 8.90309 55.7573 9.1189L54.1878 9.35432L53.7562 8.82462C53.5208 8.54996 53.3246 8.25568 53.305 8.1772C53.305 8.02025 54.3055 7.90254 56.1105 7.8633L57.4445 7.82406L57.3857 8.35377ZM120.558 7.94178C121.107 8.02025 121.578 8.13796 121.578 8.19682C121.578 8.25568 121.362 8.54996 121.107 8.82462C120.656 9.31509 120.636 9.31509 119.106 9.1189C117.615 8.90309 117.556 8.88348 117.497 8.35377C117.439 7.84368 117.458 7.82406 118.478 7.82406C119.047 7.82406 119.989 7.88292 120.558 7.94178ZM52.5987 8.70691C52.9911 9.19738 53.0499 9.41318 52.8734 9.47204C52.1867 9.70746 27.0747 12.9446 26.4665 12.8857C25.8191 12.8268 25.6818 12.7091 24.9167 11.3947C24.4654 10.6295 24.1515 9.98212 24.23 9.96251C24.3085 9.96251 30.5472 9.53089 38.1005 9.02081C45.6537 8.4911 51.8924 8.05949 51.9513 8.03987C52.0298 8.02025 52.324 8.33415 52.5987 8.70691ZM137.724 9.07966C144.709 9.55051 150.477 9.98212 150.535 10.041C150.614 10.0998 150.32 10.7669 149.888 11.4928C149.182 12.7287 149.084 12.8268 148.397 12.8857C147.593 12.9446 122.167 9.60937 121.931 9.41318C121.853 9.35432 122.01 9.02081 122.265 8.68729C122.696 8.11835 122.795 8.09873 123.874 8.1772C124.501 8.21644 130.721 8.62843 137.724 9.07966ZM57.3268 10.4726C57.3268 11.0023 57.2483 11.0808 56.5617 11.2573C55.875 11.4143 55.7769 11.3947 55.463 10.9631C54.9333 10.2372 54.9922 10.0998 55.7966 9.96251C57.111 9.7467 57.3268 9.82517 57.3268 10.4726ZM119.852 10.1587C119.93 10.2176 119.773 10.5315 119.499 10.8257C119.067 11.3358 118.93 11.3751 118.243 11.2573C117.497 11.1396 117.458 11.0808 117.458 10.4334V9.76632L118.596 9.88403C119.204 9.96251 119.773 10.0802 119.852 10.1587ZM54.6783 11.5124C54.6783 11.7478 36.0993 15.495 34.7653 15.5342C33.8628 15.5735 32.8819 15.3577 30.665 14.7102C29.0562 14.2198 27.8399 13.7882 27.9772 13.7489C28.0949 13.7097 33.9217 12.9053 40.9059 11.9636L53.5993 10.2372L54.1486 10.8061C54.4429 11.1004 54.6783 11.4339 54.6783 11.5124ZM146.926 13.7489C147.043 13.7882 145.827 14.2198 144.218 14.6906C142.08 15.3184 140.981 15.5538 140.118 15.5342C138.666 15.5146 120.205 11.7478 120.205 11.4732C120.205 11.3751 120.421 11.0415 120.695 10.7669L121.186 10.2568L133.958 11.9832C140.981 12.9249 146.808 13.7097 146.926 13.7489ZM57.4249 12.5522C57.4249 13.023 57.1895 13.023 56.8952 12.5522C56.699 12.2579 56.699 12.1402 56.8952 12.0813C57.2483 11.9636 57.4249 12.1206 57.4249 12.5522ZM117.909 12.5718C117.713 12.8072 117.537 12.8661 117.497 12.7287C117.36 12.3364 117.635 11.944 117.949 12.0617C118.223 12.1794 118.223 12.2383 117.909 12.5718ZM56.3459 13.2781C56.7579 13.7293 57.0522 14.1413 57.0129 14.1805C56.7971 14.3963 44.4765 18.065 43.7114 18.1631C43.0051 18.2416 42.1223 18.065 39.5915 17.3195C37.8258 16.8094 36.4917 16.3386 36.6487 16.2797C37.0999 16.1228 55.3453 12.3756 55.4827 12.3952C55.5415 12.4149 55.9143 12.8072 56.3459 13.2781ZM129.21 14.3963C134.232 15.4361 138.352 16.2994 138.391 16.3386C138.431 16.3582 136.999 16.8094 135.213 17.3392C132.565 18.1043 131.819 18.2612 131.074 18.1435C130.269 18.0454 118.066 14.3767 117.87 14.2002C117.831 14.1609 118.145 13.7293 118.537 13.2388C119.087 12.5522 119.361 12.356 119.695 12.4345C119.911 12.4933 124.207 13.3762 129.21 14.3963ZM59.2691 16.1228L60.6228 17.3588L57.0129 19.046C55.0314 19.9681 53.1284 20.7921 52.7753 20.8705C52.3044 20.9686 51.2254 20.7332 48.6161 19.9681C46.6738 19.3991 45.1043 18.889 45.1632 18.8498C45.2613 18.7517 57.4249 14.9457 57.7192 14.9064C57.8369 14.9064 58.5236 15.4361 59.2691 16.1228ZM63.801 15.8677C62.722 16.3975 61.741 16.8291 61.6233 16.8291C61.5252 16.8487 60.9367 16.4171 60.3481 15.8677L59.2887 14.9064H62.5258L65.7629 14.926L63.801 15.8677ZM73.0218 15.0634C72.6491 15.3969 66.3907 19.8307 66.1356 19.9288C65.9198 20.0073 62.2315 17.6727 62.3688 17.5353C62.4081 17.4961 63.6637 16.8879 65.1743 16.1816L67.9209 14.8868H70.5695C72.0997 14.8868 73.1199 14.9653 73.0218 15.0634ZM74.0616 18.6144C72.0997 20.6547 70.4518 22.3419 70.4321 22.3419C70.236 22.3419 67.0381 20.6547 67.0381 20.5566C67.0381 20.4782 68.7842 19.1833 70.9226 17.6531L74.7875 14.8868H76.2197H77.6715L74.0616 18.6144ZM81.1636 14.9653C81.1636 15.0438 76.4943 23.009 75.945 23.8526L75.6703 24.2842L73.5711 23.5583C72.394 23.1659 71.4719 22.7539 71.4916 22.6755C71.4916 22.5774 73.1591 20.7921 75.1799 18.6928L78.8486 14.8868H80.0061C80.6339 14.8868 81.1636 14.926 81.1636 14.9653ZM84.3026 14.926C84.3026 14.9653 83.6356 17.3195 82.8508 20.1839L81.399 25.3828L80.7516 25.324C79.8099 25.2259 77.2006 24.6962 76.8867 24.5196C76.7298 24.4215 77.4557 23.009 79.4371 19.6345L82.2426 14.8868H83.2824C83.8317 14.8868 84.3026 14.9064 84.3026 14.926ZM87.0492 20.3997V25.9125L84.8519 25.7752C83.6356 25.6967 82.5565 25.579 82.4781 25.4809C82.3407 25.3632 84.9304 15.5342 85.2247 15.0241C85.2639 14.9457 85.6955 14.8868 86.186 14.8868H87.0492V20.3997ZM91.1103 20.1839C91.895 23.0286 92.4836 25.4221 92.3855 25.5006C92.307 25.579 91.2476 25.6967 90.0509 25.7752L87.834 25.9125V20.3997V14.8672L88.756 14.926L89.6585 14.9849L91.1103 20.1839ZM95.4264 19.6934C97.3687 22.9501 98.1338 24.4411 97.9769 24.5392C97.5452 24.7747 93.6215 25.4613 93.5038 25.324C93.3861 25.2063 90.5806 15.2399 90.5806 14.9653C90.5806 14.9064 91.0514 14.8868 91.6008 14.926L92.6406 14.9849L95.4264 19.6934ZM99.7818 18.8106L103.568 22.7343L102.999 22.9501C102.705 23.0678 101.724 23.421 100.841 23.7152L99.2128 24.2842L98.8597 23.7545C98.33 23.009 93.7196 15.1419 93.7196 15.0045C93.7196 14.9457 94.2297 14.8868 94.8771 14.8868H96.015L99.7818 18.8106ZM103.941 17.6727C106.099 19.2029 107.845 20.4978 107.845 20.5566C107.845 20.6743 104.628 22.3419 104.431 22.3419C104.392 22.3419 102.764 20.6547 100.782 18.6144L97.2117 14.8868H98.6243H100.056L103.941 17.6727ZM109.454 16.0836C110.886 16.7506 112.142 17.3588 112.24 17.4372C112.318 17.5353 111.847 18.0062 111.161 18.5163C109.591 19.6738 108.885 20.0465 108.571 19.87C108.022 19.5365 101.763 15.0438 101.763 14.9653C101.763 14.926 102.901 14.8868 104.314 14.8868H106.864L109.454 16.0836ZM114.515 15.8677C113.927 16.4171 113.358 16.8487 113.24 16.8291C113.142 16.8291 112.161 16.3975 111.082 15.8677L109.12 14.926L112.357 14.9064H115.594L114.515 15.8677ZM123.207 16.7702C126.581 17.81 129.445 18.7321 129.583 18.7909C129.7 18.8694 128.209 19.3991 126.228 19.9681C122.991 20.9098 122.559 20.9882 121.853 20.7921C120.892 20.537 114.437 17.5157 114.378 17.2999C114.358 17.1626 116.83 14.8868 117.007 14.8868C117.046 14.8868 119.832 15.7304 123.207 16.7702ZM63.0555 19.1245C63.8991 19.7326 64.7035 20.282 64.8408 20.3212C64.9585 20.3801 65.0762 20.4978 65.0762 20.5959C65.0762 20.7724 59.3868 24.8728 58.4647 25.3632C57.6603 25.7752 57.268 25.7556 56.2086 25.3044C54.9333 24.755 54.1093 23.9703 53.5796 22.7735C53.0107 21.4983 53.0303 21.5572 53.4619 21.5376C53.6385 21.5376 55.4238 20.7528 57.4249 19.7915C59.426 18.8498 61.1525 18.0454 61.2898 18.0454C61.4075 18.0258 62.2119 18.5163 63.0555 19.1245ZM117.38 19.7915C119.44 20.7528 121.284 21.5572 121.46 21.5572C121.892 21.5572 121.853 21.6749 121.127 23.0286C120.166 24.7943 118.184 25.9714 116.811 25.5398C116.477 25.4417 114.712 24.3038 112.907 23.009C109.984 20.9294 109.65 20.6547 109.964 20.4193C112.083 18.8694 113.279 18.0454 113.417 18.0258C113.515 18.0258 115.3 18.8106 117.38 19.7915ZM67.9798 22.1065L69.7847 23.0482L67.6855 25.2455C66.2533 26.7169 65.3705 27.482 64.9781 27.5605C64.5858 27.6586 63.801 27.5605 62.722 27.2662C60.0538 26.56 58.9552 26.2264 59.0533 26.148C59.2495 25.9518 65.9787 21.1844 66.0572 21.1648C66.116 21.1648 66.9792 21.5964 67.9798 22.1065ZM112.357 23.6564C114.28 25.0297 115.83 26.1872 115.81 26.2264C115.673 26.3442 110.749 27.639 110.376 27.639C109.65 27.639 108.904 27.0897 106.982 25.0689L105.059 23.0678L106.805 22.1457C107.747 21.616 108.61 21.1844 108.689 21.1844C108.767 21.1648 110.415 22.2831 112.357 23.6564ZM72.9433 24.245C74.1205 24.6569 75.0818 25.0689 75.0818 25.1867C75.0818 25.4809 73.0022 28.8946 72.551 29.287C72.0409 29.7382 71.4916 29.6793 68.3526 28.8161L66.0375 28.1687L68.2545 25.8733C69.4708 24.5981 70.5499 23.5583 70.6479 23.5387C70.746 23.5387 71.7858 23.8526 72.9433 24.245ZM106.55 25.8537L108.865 28.1687L108.002 28.3845C107.551 28.5218 106.217 28.875 105.04 29.1889L102.94 29.7578L102.352 29.287C101.783 28.7965 99.7229 25.4613 99.8014 25.1474C99.8406 25.0101 103.568 23.5779 104.019 23.5387C104.137 23.5191 105.275 24.5589 106.55 25.8537ZM78.9074 25.8929C80.1042 26.1284 81.0851 26.3245 81.1047 26.3442C81.1244 26.3638 80.8889 27.2466 80.5947 28.3453C79.6333 31.7785 79.5549 31.8178 75.9058 30.8565C74.4344 30.4641 73.1788 30.111 73.1395 30.0913C73.1199 30.0521 73.3357 29.6793 73.6692 29.2674C73.9831 28.8554 74.6502 27.7959 75.1799 26.8935C75.8665 25.6967 76.2001 25.3044 76.4355 25.3632C76.612 25.4221 77.7303 25.6575 78.9074 25.8929ZM99.8014 27.0897C100.37 28.0902 101.077 29.1496 101.332 29.4439C101.606 29.7382 101.803 30.0129 101.744 30.0521C101.704 30.0913 100.468 30.4641 98.997 30.8565C95.3283 31.8374 95.2106 31.7785 94.3082 28.5218C94.0727 27.6586 93.8569 26.815 93.7981 26.6188C93.7196 26.3638 93.955 26.2657 95.0537 26.0695C95.7992 25.9518 96.839 25.736 97.3687 25.579C97.8984 25.4417 98.4281 25.3044 98.5262 25.3044C98.6439 25.2847 99.2128 26.1087 99.8014 27.0897ZM85.1854 26.6581C85.7544 26.6581 85.7348 26.6973 84.3026 28.1491C82.6939 29.7774 80.575 31.6216 80.4573 31.5039C80.3985 31.4646 80.4966 31.19 80.6535 30.8957C80.8105 30.6014 81.1636 29.4635 81.4775 28.3845L82.0072 26.403L83.302 26.5403C84.0083 26.5992 84.8519 26.6581 85.1854 26.6581ZM93.3272 28.1687C93.5626 29.13 93.9354 30.2679 94.1316 30.7388L94.4847 31.5627L94.0531 31.3273C93.6411 31.1115 89.3642 27.1093 89.2465 26.815C89.1877 26.6973 90.0901 26.5796 92.0716 26.5011L92.876 26.4619L93.3272 28.1687Z" fill="white"/>
<path d="M60.6223 9.727C59.9749 11.218 59.4648 12.4932 59.5041 12.5717C59.7199 12.9052 60.1319 12.4344 60.3869 11.5908L60.6812 10.6687H61.7406H62.8L63.1139 11.4927C63.4867 12.4932 63.781 12.8268 64.1733 12.6698C64.4088 12.5717 64.2518 12.042 63.2709 9.80548C62.6235 8.27521 62.0153 7.03923 61.9564 7.03923C61.8779 7.03923 61.2698 8.2556 60.6223 9.727ZM61.8976 9.94281C61.0932 10.0409 61.0343 9.90357 61.4463 9.04035L61.7995 8.31445L62.133 9.0992L62.4665 9.88395L61.8976 9.94281Z" fill="white"/>
<path d="M65.7234 7.23543C65.488 7.33352 65.2133 7.58857 65.0956 7.80437C64.5659 8.76569 65.0564 9.62892 66.41 10.1782C66.7632 10.3156 67.1359 10.5902 67.234 10.7864C67.5087 11.2965 67.1556 12.1009 66.567 12.2578C66.0765 12.3755 65.2722 12.0616 65.2722 11.7477C65.2722 11.63 65.1937 11.5516 65.076 11.5516C64.7228 11.5516 64.8602 12.3167 65.2525 12.5325C65.9196 12.8856 66.7828 12.7483 67.4302 12.2186C67.9599 11.7674 68.0384 11.5908 67.9795 10.8845C67.9207 10.139 67.8422 10.0605 66.8417 9.49158C65.6645 8.82455 65.331 8.15751 65.9784 7.68666C66.4689 7.33352 66.7828 7.37276 67.2144 7.80437C67.5676 8.15751 67.6068 8.15751 67.7245 7.86323C67.9795 7.19619 66.7632 6.82344 65.7234 7.23543Z" fill="white"/>
<path d="M73.9241 7.39239C72.8647 7.9221 72.4331 8.66761 72.4331 9.88397C72.4331 11.1003 72.8647 11.8458 73.9241 12.3952C74.807 12.866 76.3765 12.7679 77.2005 12.1794C77.9656 11.63 78.5149 10.2567 78.3383 9.31503C77.9852 7.45125 75.7291 6.47031 73.9241 7.39239ZM76.4353 7.70629C77.789 8.41257 77.789 11.0807 76.4157 12.0224C75.9056 12.3756 74.8462 12.4344 74.2773 12.1401C73.414 11.6693 73.002 9.51122 73.5906 8.43219C74.1007 7.49049 75.3759 7.17659 76.4353 7.70629Z" fill="white"/>
<path d="M94.975 9.74662C94.3079 11.218 93.7978 12.4932 93.8371 12.5717C94.0333 12.9052 94.4453 12.454 94.7592 11.5515L95.1123 10.5706H96.0932H97.0546L97.545 11.6693C97.8982 12.4932 98.114 12.7483 98.369 12.6894C98.5652 12.6502 98.7025 12.4736 98.6633 12.3167C98.526 11.7674 96.4071 7.03923 96.2894 7.03923C96.2306 7.03923 95.6224 8.2556 94.975 9.74662ZM96.2502 9.94281C95.9167 9.98205 95.6028 9.96243 95.5439 9.92319C95.5047 9.86433 95.6028 9.49158 95.799 9.07958L96.1129 8.31445L96.4856 9.0992L96.8387 9.88395L96.2502 9.94281Z" fill="white"/>
<path d="M68.4116 7.41209C68.4116 7.52981 68.7844 7.6279 69.2552 7.66714L70.0792 7.72599L70.1381 10.2372C70.1773 12.4933 70.2165 12.7484 70.5304 12.6895C70.8247 12.6307 70.864 12.3168 70.9228 10.1195L70.9817 7.6279H71.7468C72.1784 7.6279 72.5316 7.52981 72.5316 7.43171C72.5316 7.314 71.7076 7.23552 70.4716 7.23552C69.3141 7.23552 68.4116 7.314 68.4116 7.41209Z" fill="white"/>
<path d="M79.2407 9.884C79.3192 13.1015 79.6527 13.5331 79.79 10.5903L79.8881 8.53031L81.6538 10.5118C82.6348 11.6105 83.5372 12.5129 83.6746 12.5129C83.8511 12.5325 83.91 11.8851 83.91 9.884C83.91 7.66708 83.8707 7.23547 83.6157 7.23547C83.3803 7.23547 83.3214 7.56899 83.3214 9.09925C83.3214 10.1194 83.2626 10.963 83.1841 10.9434C83.086 10.9434 82.2816 10.0998 81.3595 9.07963C80.4375 8.05946 79.5742 7.23547 79.4369 7.23547C79.2407 7.23547 79.2015 7.84365 79.2407 9.884Z" fill="white"/>
<path d="M87.7552 7.47084C87.559 8.11826 87.0685 12.3951 87.1666 12.5521C87.4021 12.9445 87.6179 12.454 87.7356 11.1984C87.971 8.68721 88.0495 8.66759 89.0893 10.7472L90.031 12.5913L91.0904 10.6491C91.6593 9.58967 92.1498 8.74606 92.1498 8.80492C92.4833 12.3167 92.6795 13.0622 93.1307 12.611C93.2681 12.4736 93.2484 11.6104 93.0326 9.86433C92.7384 7.47084 92.6403 7.05885 92.4637 7.25504C92.4245 7.29427 91.9144 8.19674 91.3062 9.27577L90.2272 11.1984L89.7367 10.3548C89.462 9.88395 88.9912 8.98149 88.6969 8.35369C88.1476 7.25504 87.8925 6.99999 87.7552 7.47084Z" fill="white"/>
<path d="M99.2129 9.8643C99.2129 12.0812 99.2521 12.5128 99.5268 12.6109C99.7034 12.6698 99.8799 12.7286 99.9192 12.7286C99.9584 12.7286 99.9976 12.1597 99.9976 11.473C99.9976 10.7668 100.076 10.1586 100.174 10.0997C100.272 10.0409 100.782 10.551 101.292 11.2572C101.822 11.9439 102.411 12.5717 102.587 12.6305C103.372 12.9052 103.294 12.454 102.352 11.2965C101.292 10.0016 101.214 9.78583 101.665 9.78583C102.156 9.78583 102.744 9.04031 102.744 8.43213C102.744 7.49043 102.313 7.23539 100.665 7.23539H99.2129V9.8643ZM101.724 7.88281C102.411 8.43213 101.626 9.66811 100.645 9.5504C100.135 9.49154 100.096 9.41307 100.037 8.56946C99.9976 7.82395 100.037 7.64738 100.331 7.58853C100.763 7.49043 101.391 7.62776 101.724 7.88281Z" fill="white"/>
<path d="M103.333 7.43171C103.333 7.52981 103.686 7.6279 104.118 7.6279H104.883L104.942 10.1195C105.001 12.3168 105.04 12.6307 105.334 12.6895C105.648 12.7484 105.687 12.4933 105.726 10.2372L105.785 7.72599L106.629 7.66714C107.08 7.6279 107.453 7.52981 107.453 7.41209C107.453 7.314 106.55 7.23552 105.393 7.23552C104.157 7.23552 103.333 7.314 103.333 7.43171Z" fill="white"/>
<path d="M108.081 9.92323C108.139 12.1794 108.198 12.6306 108.434 12.6306C108.669 12.6306 108.728 12.1794 108.787 9.92323C108.826 7.33355 108.826 7.23546 108.434 7.23546C108.041 7.23546 108.041 7.33355 108.081 9.92323Z" fill="white"/>
<path d="M110.042 9.86439C110.121 13.1015 110.454 13.5331 110.592 10.5903L110.69 8.56955L112.455 10.551C113.436 11.6301 114.339 12.5325 114.476 12.5325C114.653 12.5325 114.712 11.8655 114.712 9.884C114.712 7.66709 114.672 7.23547 114.417 7.23547C114.182 7.23547 114.123 7.56899 114.123 9.11887C114.123 10.1587 114.044 10.963 113.946 10.9238C113.848 10.8846 113.044 10.0606 112.141 9.09925C111.239 8.11832 110.395 7.31395 110.258 7.27471C110.042 7.21585 110.003 7.74556 110.042 9.86439Z" fill="white"/>
<path d="M6.5731 52.1035C5.23903 55.164 1.43299 63.6982 0.746335 65.1499C0.314723 66.1113 -0.0187957 66.8764 0.000822998 66.896C0.0204417 66.896 0.373579 66.9156 0.805191 66.9352L1.5507 66.9745L2.2766 64.9145C2.68859 63.7766 3.19868 62.4426 3.4341 61.9129L3.8461 60.9908H6.59272C8.57421 60.9908 9.37858 61.0496 9.49629 61.2262C9.57477 61.3635 10.1241 62.6976 10.7323 64.2082L11.8309 66.9156L12.9492 66.9549C13.5574 66.9549 14.0675 66.896 14.0675 66.8175C14.0675 66.7391 13.8517 66.2486 13.5966 65.7385C13.1846 64.9145 9.53553 56.4196 8.02489 52.7509C7.69137 51.9465 7.33823 51.2599 7.22052 51.2206C7.10281 51.1814 6.80853 51.5738 6.5731 52.1035ZM7.9268 57.2044L9.10392 59.9117L6.74967 59.9706C5.45483 59.9902 4.3758 59.9902 4.31695 59.951C4.21885 59.8529 6.49463 54.5166 6.63196 54.5166C6.69081 54.5166 7.27938 55.7329 7.9268 57.2044Z" fill="white"/>
<path d="M19.6587 51.358C18.5209 51.6523 17.4026 52.3782 16.8729 53.1629C16.2647 54.085 16.0489 55.8311 16.402 56.9297C16.7552 57.9891 18.0892 59.0682 19.953 59.8333C20.8359 60.2061 21.9345 60.8142 22.3661 61.187C23.0332 61.7952 23.1509 62.011 23.2294 62.8546C23.3471 64.1102 22.6997 65.4246 21.7187 65.974C20.2669 66.8176 17.8734 66.229 16.9514 64.8165C16.7159 64.4437 16.4609 64.1298 16.402 64.1298C16.2451 64.1298 15.8527 65.9543 15.9704 66.1505C16.2843 66.6606 18.1481 67.2688 19.3841 67.2688C22.0915 67.2688 24.0337 66.0917 24.7204 64.0317C25.6817 61.2262 24.6223 59.4802 21.0713 58.1265C20.1885 57.7929 19.4037 57.3025 18.8544 56.7728C18.0696 56.0273 17.9912 55.8703 17.9912 54.9875C17.9912 53.2218 19.1094 52.1231 20.8947 52.1231C21.8953 52.1231 22.5819 52.5351 23.1901 53.4964C23.4059 53.83 23.6414 54.1046 23.7002 54.1242C23.7787 54.1242 23.9356 53.7122 24.0533 53.2218C24.3476 52.1035 24.1907 51.8681 22.837 51.4757C21.7972 51.1618 20.6397 51.1226 19.6587 51.358Z" fill="white"/>
<path d="M45.3395 51.4757C42.7695 52.025 40.9646 53.418 39.9051 55.6545C39.3166 56.8905 39.2773 57.1063 39.2773 59.2251C39.2773 61.9914 39.6893 63.1881 41.1607 64.8165C42.691 66.484 44.7706 67.2688 47.6153 67.2688C53.0301 67.2688 56.326 63.914 55.9925 58.7346C55.8552 56.6354 55.2862 55.1837 54.0503 53.8103C52.0295 51.613 48.7532 50.7302 45.3395 51.4757ZM50.7347 52.8686C53.0497 54.1242 54.2661 57.4006 53.6971 60.8731C53.1086 64.581 50.9897 66.484 47.4976 66.484C44.2997 66.484 42.1221 64.5222 41.5139 61.0889C41.1019 58.6366 41.5924 55.9684 42.7891 54.3204C44.3978 52.1231 48.1254 51.4365 50.7347 52.8686Z" fill="white"/>
<path d="M59.7596 51.3188C59.7596 51.4169 59.7596 52.751 59.7793 54.3205C59.7989 56.5963 59.4457 66.0329 59.328 66.7588C59.3084 66.8373 59.6223 66.9354 60.0147 66.955L60.7602 66.9746L60.7994 61.0105L60.8583 55.0268L64.6055 59.0486C66.6654 61.2459 69.1766 63.9729 70.1968 65.1108C71.1974 66.2487 72.0998 67.1708 72.1979 67.1708C72.2764 67.1708 72.3745 64.2083 72.4137 60.5985C72.453 56.9886 72.5511 53.4769 72.6295 52.7902L72.7865 51.5739H72.0213H71.2562L71.3151 57.3614C71.3543 60.5396 71.3347 63.1489 71.2955 63.1489C71.1581 63.1489 67.6267 59.4606 63.7226 55.2426C61.643 53.006 59.9166 51.1815 59.8577 51.1815C59.8185 51.1815 59.7793 51.2404 59.7596 51.3188Z" fill="white"/>
<path d="M88.1476 51.4169C88.0888 51.5542 87.9514 52.594 87.8337 53.7319C87.716 54.8698 87.304 57.8715 86.9313 60.4023C86.5585 62.9331 86.2054 65.4443 86.1269 65.9936L86.0288 66.9746L86.7155 66.9942C87.5002 67.0138 87.4414 67.1904 87.716 63.8356C87.9711 60.677 88.4615 56.3412 88.5989 55.9881C88.7166 55.6742 89.364 56.7924 91.5809 61.2459C93.1308 64.3457 94.4649 66.8569 94.5433 66.8176C94.6218 66.798 95.3085 65.5032 96.0736 63.9337C97.8981 60.265 100.409 55.6546 100.527 55.7723C100.664 55.89 101.096 59.8137 101.371 63.3451C101.665 67.2689 101.567 66.9746 102.744 66.9746C103.862 66.9746 103.823 67.0727 103.529 64.8754C103.411 64.0906 103.019 60.7162 102.646 57.381C102.038 51.8093 101.9 50.9657 101.685 51.2011C101.645 51.2403 100.272 53.7908 98.624 56.8709C96.9761 59.9511 95.4654 62.7173 95.2889 63.0312L94.9357 63.6002L93.739 61.3636C93.0719 60.1276 91.6594 57.381 90.5804 55.2622C89.5013 53.1434 88.54 51.3384 88.4223 51.2796C88.3046 51.2207 88.1869 51.2796 88.1476 51.4169Z" fill="white"/>
<path d="M110.435 58.7935C108.571 62.9723 106.982 66.5233 106.943 66.6803C106.864 66.9157 107.021 66.9745 107.629 66.9745C108.414 66.9942 108.434 66.9745 108.747 65.9936C108.924 65.4639 109.415 64.1102 109.846 62.9919L110.631 60.9712L113.476 61.0301L116.32 61.0889L117.517 64.0906C118.38 66.2487 118.792 67.053 118.988 66.9745C119.126 66.9157 119.655 66.8765 120.126 66.8765H120.99L120.519 65.9348C120.028 64.9538 115.202 53.673 114.613 52.1035C114.417 51.5935 114.162 51.1815 114.045 51.1815C113.927 51.1815 112.298 54.5951 110.435 58.7935ZM114.81 57.3025C115.398 58.6562 115.889 59.8333 115.889 59.8922C115.889 59.951 114.829 60.0099 113.534 60.0099C112.22 60.0099 111.18 59.9314 111.18 59.8333C111.18 59.3821 113.417 54.5166 113.554 54.654C113.633 54.7324 114.201 55.9292 114.81 57.3025Z" fill="white"/>
<path d="M161.973 51.3188C161.973 51.4169 161.973 52.7902 161.993 54.4186C162.012 56.7532 161.679 65.974 161.541 66.7588C161.522 66.8373 161.836 66.9354 162.228 66.955L162.974 66.9746L163.013 61.0105L163.072 55.0464L166.819 59.0486C168.879 61.2459 171.39 63.9729 172.41 65.1108C173.411 66.2487 174.313 67.1708 174.392 67.1708C174.49 67.1708 174.588 64.1299 174.627 60.4023C174.686 56.6747 174.784 53.163 174.863 52.594L175 51.5739H174.274H173.568V57.3614C173.568 60.5396 173.528 63.1489 173.489 63.1489C173.372 63.1489 169.742 59.3625 165.936 55.2426C163.856 53.006 162.13 51.1815 162.071 51.1815C162.032 51.1815 161.993 51.2404 161.973 51.3188Z" fill="white"/>
<path d="M26.8193 52.2212V52.8686L29.1343 52.7901L31.469 52.7117L31.5867 55.7918C31.6652 57.4986 31.6652 60.7161 31.5867 62.933L31.469 66.9745L32.5284 66.9549H33.5682L33.5093 59.8136L33.4505 52.692L35.8832 52.7901L38.3159 52.8882V52.2212V51.5738H32.5676H26.8193V52.2212Z" fill="white"/>
<path d="M125.011 59.284V66.9941L126.051 66.9745H127.091L126.953 63.2862L126.816 59.6175H127.326C127.915 59.6175 128.601 60.3434 131.623 64.3064L133.643 66.9353L134.879 66.9549C135.546 66.9549 136.096 66.9549 136.096 66.9353C136.096 66.9157 134.762 65.2481 133.153 63.2273C131.525 61.2066 130.269 59.4998 130.348 59.4213C130.426 59.3428 130.858 59.1859 131.309 59.0682C134.35 58.2049 135.723 54.909 133.918 52.8686C132.996 51.7896 132.015 51.5738 128.268 51.5738H125.011V59.284ZM130.681 52.5744C132.761 53.1433 133.408 55.6937 131.937 57.381C131.603 57.7537 131.054 58.1853 130.72 58.3227C129.877 58.6758 128.248 58.872 127.464 58.715L126.816 58.5777L126.953 55.6349C127.032 54.0261 127.13 52.6136 127.189 52.5351C127.326 52.2801 129.779 52.3193 130.681 52.5744Z" fill="white"/>
<path d="M138.254 52.2212V52.8686L140.609 52.7901L142.963 52.7117V59.8333V66.9745L143.963 66.9549H144.984L144.944 59.8136L144.905 52.692L147.318 52.7901L149.731 52.8882V52.2212V51.5738H144.003H138.254V52.2212Z" fill="white"/>
<path d="M153.851 59.284V66.9941L154.832 66.9745H155.813V59.2644V51.5738H154.832H153.851V59.284Z" fill="white"/>
</svg>
