<svg width="100" height="100" viewBox="0 0 100 100" fill="none" xmlns="http://www.w3.org/2000/svg">
<path fill-rule="evenodd" clip-rule="evenodd" d="M81.2196 77.8011V65.6967H76.2242V77.8011H81.2196ZM54.7733 72.775V65.8798H49.9314V71.1507C49.9314 72.6827 49.8702 73.1123 49.7783 73.5107C49.4411 74.6141 48.2764 75.1034 47.0817 75.1034C45.4272 75.1034 44.661 74.4601 44.3544 73.4489C44.2626 73.1128 44.2319 72.7449 44.2013 72.3771C44.1707 71.9787 44.2013 71.5491 44.2013 71.0905V65.8803H39.2982V72.8062C39.2982 74.3698 39.8196 75.534 40.6772 76.3303C42.148 77.771 44.6304 78.2 46.9286 78.2C49.7171 78.2 51.8623 77.8016 53.3943 76.3002C54.1917 75.5334 54.7733 74.5223 54.7733 72.775ZM30.9934 71.917C30.7507 71.8748 30.5047 71.8545 30.2583 71.8563H24.7425C24.4665 71.8563 24.1599 71.8869 24.0069 71.917C24.0987 71.8246 24.2829 71.6415 24.4665 71.3961L26.9484 67.2893C27.2856 66.7384 27.4387 66.3706 27.4999 66.2175C27.5611 66.3706 27.7142 66.7384 28.0514 67.321L30.595 71.4583C30.718 71.6415 30.9016 71.8246 30.9934 71.917ZM40.2481 77.8011L29.2161 61.2537H23.0264L24.6502 63.1842C24.6808 63.2148 24.7425 63.2449 24.8032 63.2765C24.742 63.3071 24.6808 63.3372 24.6502 63.3678L15.0282 77.8011H20.6052L22.1071 75.3187C22.1683 75.1962 22.1989 75.0733 22.1989 75.0126C22.2601 75.0126 22.4137 75.0733 22.5667 75.0733H32.526C32.679 75.0733 32.8014 75.0427 32.8626 75.0126C32.857 75.0987 32.8784 75.1845 32.9239 75.258L34.487 77.8011H40.2481ZM74.8764 71.5808C74.8764 70.2319 74.3244 68.6688 72.6087 66.493L68.4714 61.2532H62.7102L65.989 64.9304C66.541 65.5436 67.2455 66.0946 67.2455 66.0946C66.4491 65.6344 65.438 65.4513 64.6412 65.4513C62.7414 65.4513 60.8099 65.8497 59.0948 66.8001C57.2557 67.8102 56.0298 69.4963 56.0298 71.7338C56.0298 73.4495 56.796 74.7677 57.7765 75.7788C59.9835 77.9847 63.9968 78.1995 65.4681 78.1995C67.6434 78.1995 71.0451 77.7093 72.9766 75.9625C74.1106 74.9202 74.8764 73.4806 74.8764 71.5808ZM70.0957 71.7338C70.0957 72.9903 69.2677 73.9397 68.226 74.4606C67.3679 74.9207 66.3563 75.0432 65.4681 75.0432C64.5799 75.0432 63.5377 74.859 62.6796 74.43C61.6379 73.9091 60.8405 72.898 60.8405 71.7945C60.8405 70.4773 61.8516 69.4345 63.0474 68.9137C63.7831 68.5775 64.6718 68.4545 65.3758 68.4545C66.0507 68.4545 67.0312 68.5458 67.7975 68.853C69.177 69.4345 70.0957 70.538 70.0957 71.7338ZM79.6327 21.8018C76.0447 21.796 72.5606 23.0065 69.7492 25.2357C66.9378 23.0063 63.4537 21.7958 59.8657 21.8018C56.2779 21.7962 52.7941 23.0067 49.9827 25.2357C47.1716 23.0062 43.6877 21.7957 40.0998 21.8018C36.512 21.7962 33.0282 23.0067 30.2168 25.2357C27.4055 23.0066 23.9217 21.7961 20.3339 21.8018C11.5295 21.8018 4.39453 28.9362 4.39453 37.7411C4.39453 46.545 11.5289 53.6804 20.3339 53.6804C23.9216 53.6859 27.4054 52.4755 30.2168 50.2466C33.0282 52.4756 36.512 53.6861 40.0998 53.6804C43.6876 53.6864 47.1716 52.4759 49.9827 50.2466C52.7941 52.4755 56.2779 53.686 59.8657 53.6804C63.4537 53.6863 66.9378 52.4759 69.7492 50.2466C72.5606 52.4759 76.0446 53.6863 79.6327 53.6804C88.437 53.6804 95.5715 46.5455 95.5715 37.7411C95.5715 28.9367 88.437 21.8018 79.6327 21.8018ZM27.6089 47.6427C25.5778 49.1244 23.0404 50.0287 20.3339 50.0287C13.5418 50.0287 8.04578 44.5331 8.04578 37.7411C8.04578 30.9491 13.5418 25.453 20.3339 25.453C23.0404 25.453 25.5762 26.3578 27.6089 27.84C25.3694 30.6535 24.1535 34.1451 24.161 37.7411C24.1627 41.3357 25.3775 44.8245 27.6089 47.6427ZM30.2173 45.042C28.6509 42.9306 27.8076 40.3701 27.8127 37.7411C27.8061 35.1119 28.6496 32.5509 30.2173 30.4402C31.7848 32.5511 32.6282 35.1119 32.6219 37.7411C32.6269 40.3701 31.7836 42.9305 30.2173 45.042ZM47.3753 47.6427C45.2651 49.1963 42.7119 50.0314 40.0915 50.025C37.4765 50.0303 34.929 49.1952 32.8248 47.6427C35.0563 44.8249 36.2712 41.3361 36.2727 37.7416C36.2802 34.1456 35.0643 30.654 32.8248 27.8405C34.9288 26.2876 37.4764 25.4522 40.0915 25.4577C42.8177 25.4577 45.3364 26.3396 47.3753 27.8405C45.1358 30.654 43.9199 34.1456 43.9274 37.7416C43.9289 41.3361 45.1438 44.8248 47.3753 47.6427ZM49.9827 45.042C48.4163 42.9306 47.573 40.3701 47.5781 37.7411C47.5718 35.1119 48.4152 32.551 49.9827 30.4402C51.5506 32.5509 52.3942 35.1118 52.3879 37.7411C52.3929 40.3702 51.5494 42.9307 49.9827 45.042ZM67.1412 47.6427C65.1024 49.1441 62.5836 50.025 59.8579 50.025C57.1322 50.025 54.6295 49.1426 52.5907 47.6427C54.8225 44.825 56.0374 41.3362 56.0386 37.7416C56.0461 34.1456 54.8302 30.654 52.5907 27.8405C54.6295 26.3402 57.1322 25.4577 59.8579 25.4577C62.5836 25.4577 65.1024 26.3396 67.1412 27.8405C64.902 30.6542 63.6861 34.1457 63.6933 37.7416C63.6951 41.3361 64.91 44.8247 67.1412 47.6427ZM69.7497 45.042C68.1833 42.9306 67.34 40.3701 67.3451 37.7411C67.3383 35.1118 68.1818 32.5508 69.7497 30.4402C71.3171 32.5511 72.1606 35.1119 72.1543 37.7411C72.159 40.3701 71.3157 42.9304 69.7497 45.042ZM79.6327 50.0287C76.9251 50.0287 74.3882 49.1244 72.3577 47.6427C74.589 44.8247 75.8039 41.3361 75.8055 37.7416C75.8127 34.1457 74.5969 30.6542 72.3577 27.8405C74.3903 26.3588 76.9256 25.4535 79.6327 25.4535C86.4236 25.4535 91.9207 30.9496 91.9207 37.7416C91.9207 44.5326 86.4236 50.0287 79.6327 50.0287Z" fill="white"/>
</svg>
