<svg width="105" height="105" viewBox="0 0 105 105" fill="none" xmlns="http://www.w3.org/2000/svg">
<path d="M49.8331 0.0214539C40.162 0.572906 31.2561 3.53006 23.3359 8.8171C18.4142 12.112 13.9681 16.3306 10.4043 21.1076C4.68301 28.7796 1.20197 37.7132 0.243825 47.2326C-0.135298 50.9549 -0.0663667 55.5388 0.40926 59.1922C1.22954 65.4029 3.02176 71.138 5.84795 76.5974C12.2034 88.8396 23.1084 98.1178 36.1847 102.398C42.0232 104.308 47.8823 105.142 54.2102 104.956C65.2462 104.632 75.9168 100.779 84.6848 93.9543C95.7828 85.3172 102.938 72.7234 104.627 58.8475C105.137 54.6634 105.123 50.0312 104.592 45.8195C104.075 41.6974 102.917 37.1824 101.38 33.274C96.0723 19.8186 85.3879 9.07904 71.9601 3.70239C67.19 1.79988 62.2477 0.628052 56.933 0.145531C55.7957 0.0421295 50.9567 -0.0405884 49.8331 0.0214539ZM54.6652 4.39171C63.7366 4.84665 72.0014 7.56944 79.3702 12.5256C87.3801 17.9161 93.577 25.5743 97.1752 34.5147C100.78 43.4827 101.594 53.4571 99.4913 62.949C95.3003 81.8982 79.9837 96.553 60.8621 99.8962C55.0236 100.916 48.8129 100.841 43.0227 99.6894C34.682 98.0213 26.9548 94.1749 20.5372 88.495C19.6273 87.6953 17.5801 85.655 16.7184 84.6968C11.5348 78.9411 7.8056 72.0066 5.88931 64.5413C3.73865 56.1799 3.86273 47.3636 6.23397 39.1331C8.21919 32.2607 11.5486 26.1809 16.3255 20.694C17.2699 19.6118 19.6549 17.2267 20.7302 16.2962C26.2034 11.533 32.3176 8.18983 39.1487 6.22528C44.1876 4.77083 49.5712 4.13666 54.6652 4.39171Z" fill="white"/>
<path d="M46.7725 6.18401C45.6007 6.32877 44.6218 6.48042 44.6012 6.52177C44.546 6.61139 44.0773 20.1702 44.1324 20.2185C44.1531 20.2391 44.9458 20.1357 45.8902 19.991L47.6204 19.729L47.6548 19.1776C47.6755 18.8743 47.7582 16.827 47.8409 14.6281C47.9168 12.4292 47.9926 10.6232 47.9995 10.6094C48.0133 10.6025 48.7302 12.6429 49.5987 15.1451L51.1772 19.6946H52.4938H53.8104L55.3889 15.152C56.2575 12.6498 56.9744 10.6163 56.9881 10.6301C57.0019 10.6439 57.0915 12.6774 57.1812 15.1589C57.2777 17.6335 57.3742 19.6808 57.4017 19.7015C57.4569 19.7566 60.8552 20.2805 60.8897 20.2391C60.9103 20.2116 60.4416 6.50799 60.414 6.47352C60.3934 6.44595 55.8783 5.90829 55.8577 5.92896C55.8439 5.94275 55.1063 8.07273 54.2102 10.6646C53.3141 13.2564 52.5559 15.4208 52.5283 15.476C52.4938 15.5311 51.8596 13.7734 50.8188 10.7542C49.4402 6.76303 49.1369 5.94275 49.0335 5.93586C48.9576 5.92896 47.9443 6.03925 46.7725 6.18401Z" fill="white"/>
<path d="M81.5965 17.916C81.0106 18.6812 79.1701 21.1144 77.5088 23.3134C75.8476 25.5123 74.469 27.3458 74.4345 27.3872C74.3862 27.4492 75.2686 28.304 76.6265 29.5034L76.9229 29.7722L81.3552 27.7594C83.7885 26.6496 85.8358 25.7122 85.9116 25.6777C86.0081 25.6226 86.0288 25.6295 85.9805 25.7053C85.9529 25.7535 84.6019 27.5389 82.9751 29.6757C81.3552 31.8126 80.0248 33.5841 80.0248 33.6117C80.0248 33.6806 81.6447 36.4379 81.7412 36.5344C81.8102 36.6033 94.1558 30.9372 94.1558 30.8407C94.1558 30.7442 92.4739 27.8973 92.4118 27.8973C92.3842 27.8973 90.7919 28.6142 88.8756 29.4896C86.9593 30.365 85.3808 31.0681 85.367 31.0544C85.3532 31.0406 86.4699 29.5585 87.8486 27.7594C89.2272 25.9603 90.3577 24.4714 90.3577 24.4507C90.3646 24.3542 88.1312 21.659 88.0622 21.6797C88.0209 21.6935 86.3183 22.4793 84.2779 23.4305C82.2306 24.3749 80.5556 25.14 80.5418 25.1263C80.5349 25.1125 81.5896 23.7063 82.8924 22.0037C84.6846 19.6462 85.2361 18.8811 85.174 18.8259C84.919 18.5916 83.1199 16.9441 82.9131 16.7442L82.658 16.5098L81.5965 17.916Z" fill="white"/>
<path d="M20.9026 18.3158C20.296 18.5157 19.6687 18.9638 19.2621 19.4877C18.8829 19.9702 14.7884 25.0918 13.2788 26.9667C12.7549 27.6078 12.3413 28.1592 12.3482 28.1799C12.362 28.2075 12.7274 28.5039 13.1616 28.8416C13.8647 29.3862 18.6279 33.205 21.909 35.852L23.1015 36.817L23.2256 36.6516C23.2945 36.5551 23.9149 35.783 24.6042 34.9283C25.9139 33.3153 29.4157 28.9244 30.1808 27.9455C30.9459 26.9598 31.2217 26.2498 31.2217 25.2779C31.2217 24.2577 30.8701 23.4167 30.1463 22.6999C29.4363 21.983 28.5816 21.6245 27.6028 21.6245C26.7549 21.6245 25.9415 21.8865 25.3004 22.369C25.1074 22.5068 25.073 22.5206 25.1074 22.4241C25.2246 22.1277 25.3073 21.335 25.266 20.9835C25.1419 20.0115 24.3492 18.9845 23.3359 18.4813C22.812 18.2262 22.75 18.2124 22.0607 18.1986C21.4816 18.1848 21.2404 18.2055 20.9026 18.3158ZM22.102 21.7279C23.0395 22.0036 23.4324 23.1962 22.8534 24.0027C22.5501 24.4231 18.9519 28.8623 18.9105 28.8623C18.8967 28.8623 18.3522 28.4418 17.7042 27.9249L16.5324 26.9805L16.6978 26.8013C16.7943 26.7048 17.6835 25.595 18.6761 24.3473C19.6687 23.0928 20.5373 22.0174 20.5993 21.9485C20.8888 21.6452 21.5161 21.5556 22.102 21.7279ZM26.8652 24.8367C27.203 24.9746 27.4856 25.2503 27.6441 25.5881C27.8096 25.9534 27.8164 26.6152 27.651 26.9322C27.589 27.0632 26.5964 28.3453 25.4452 29.7722C23.784 31.8471 23.3428 32.364 23.2463 32.3296C23.0188 32.2469 21.0129 30.496 21.0474 30.4133C21.1232 30.2134 25.1626 25.2159 25.3763 25.0504C25.5003 24.9539 25.6865 24.8436 25.7761 24.8023C26.038 24.6989 26.5757 24.7127 26.8652 24.8367Z" fill="white"/>
<path d="M50.5638 21.9071C46.0075 22.1759 41.2719 23.6028 37.2876 25.8982C33.4137 28.1316 30.0498 31.1991 27.4235 34.9007C21.0336 43.9169 20.0824 55.9455 24.9834 65.9129C26.5274 69.0631 28.4299 71.7101 30.9115 74.1847C33.2827 76.5491 35.847 78.3826 38.88 79.8991C43.1468 82.0291 47.7308 83.1113 52.5284 83.1113C60.614 83.1113 68.293 79.9267 74.0695 74.1847C77.9917 70.2763 80.6938 65.6165 82.1206 60.295C83.2856 55.9386 83.4372 50.8928 82.5342 46.4398C80.9419 38.6023 76.3028 31.6333 69.6854 27.1459C64.0261 23.3064 57.4087 21.4935 50.5638 21.9071ZM55.6579 26.4152C60.2556 26.9943 64.5224 28.69 68.1207 31.3645C74.5933 36.1759 78.5293 43.6963 78.7292 51.6441L78.7499 52.4713L65.6391 52.492L52.5215 52.5058L52.5077 65.6234L52.487 78.7342L51.6598 78.7135C45.0217 78.5412 38.6525 75.7839 33.9169 71.0414C29.264 66.3817 26.5205 60.1434 26.2793 53.6569L26.2379 52.5058H39.3763H52.5215V39.3605V26.2222L53.6795 26.2636C54.3137 26.2911 55.2029 26.3532 55.6579 26.4152Z" fill="white"/>
</svg>
