<svg width="175" height="67" viewBox="0 0 175 67" fill="none" xmlns="http://www.w3.org/2000/svg">
<path d="M170.652 52.8793H164.175C160.567 52.9718 158.779 51.0289 158.008 50.3813C135.403 34.0982 93.2454 15.5947 55.2515 2.79649C50.3481 1.28537 43.0701 0.236842 38.5059 0.236842C33.9725 0.236842 31.7829 -0.133225 27.0645 0.0518101C22.5312 0.236845 17.8128 1.00782 15.1606 1.74796C12.5085 2.51894 6.5565 4.03006 6.27894 7.63824C3.99685 9.36523 1.68391 11.6782 0.758734 12.6342C-0.19728 13.5902 -0.505672 15.4405 1.37552 17.5068C3.25671 19.6038 5.5388 21.6701 7.04992 20.7449C8.56104 19.8197 8.19097 18.6478 8.74608 17.5068C9.30118 16.3657 11.2132 14.6696 13.0944 16.7358C14.9756 18.8329 13.8037 19.7272 12.7243 20.714C11.7066 21.6392 9.70209 23.3662 11.0282 25.0624C12.3543 26.7585 13.8654 27.3445 15.9316 25.8333C17.4427 24.7231 21.5443 22.3794 23.9189 21.0533C24.5049 20.714 25.2142 19.8505 27.8047 20.8991C30.5802 21.9784 34.8977 23.8905 36.7172 24.8773L32.8006 26.666C30.7344 27.9921 28.9149 31.7236 28.7299 33.0805C28.5448 35.1776 29.285 38.1382 32.1222 40.6053H38.2283L41.929 35.301L41.6515 34.7459C46.3699 34.1908 59.2298 38.0765 65.2743 35.7019C69.4376 37.398 76.8081 38.354 90.4082 37.028C92.8753 36.8429 96.2368 36.3187 98.303 39.0325C100.462 41.8389 111.009 52.9718 114.432 54.1129C117.855 55.2539 132.01 55.2539 135.711 55.9015C138.887 56.4875 140.152 55.9015 142.804 58.9238L148.478 63.9506C149.126 64.7215 151.13 66.171 153.382 66.171H157.298C159.58 65.9859 160.783 64.3823 161.369 62.4703H171.022C174.044 62.4703 175 59.7564 175 57.2893C174.969 54.8838 173.304 52.8793 170.652 52.8793ZM170.713 60.219H161.585C161.061 56.1791 158.1 55.624 156.373 55.5315C154.708 55.4389 153.443 54.7605 152.672 54.2979C152.672 54.2979 146.535 48.8085 144.839 46.989C143.143 45.2003 142.002 44.6144 140.398 44.6144C140.398 44.6144 135.958 44.6144 134.817 44.6144C133.676 44.6144 132.349 44.7069 130.468 42.1473C128.587 39.5876 123.745 35.5168 122.543 34.6533C121.34 33.7898 121.031 34.7459 121.772 35.4243C122.419 36.1028 125.565 38.0765 127.446 41.2221C129.327 44.3368 130.931 45.9713 132.257 46.6189C133.398 47.3899 136.883 47.2974 138.98 47.2974C141.046 47.2974 141.817 47.4824 143.513 49.1786C145.209 50.8747 149.095 54.2979 150.144 55.4389C151.192 56.58 152.981 57.6285 155.54 57.6285C158.1 57.6285 159.334 59.2322 159.241 60.7433C159.149 62.1619 158.378 63.7655 157.267 63.7655H153.197C152.549 63.7655 151.038 62.8095 150.637 62.4394C149.311 61.4834 146.011 58.6462 144.099 56.6417C142.187 54.6371 140.306 54.082 137.777 53.7119C135.248 53.3419 124.64 52.8485 122.265 52.7559C119.89 52.6634 116.313 52.6634 113.753 51.0598C111.255 49.487 101.264 38.5391 99.5674 36.5654C97.5937 34.2833 94.6023 34.5608 92.8136 34.53C75.1428 36.4729 68.8516 34.6842 66.9704 33.5431L68.8208 30.3667C74.341 31.6619 81.9274 30.4284 82.9451 30.12C83.9936 29.8424 83.8086 28.7939 82.7601 28.9789C80.3855 29.2565 70.0852 28.0229 69.0675 27.8379C68.975 25.1857 63.023 17.2292 62.252 15.6873C61.481 14.1761 62.1595 13.2201 62.8996 12.5725C63.6706 11.894 63.6706 11.0614 62.9922 11.0614C60.2475 11.3389 59.5999 13.5285 60.155 16.1807C60.7101 18.8329 66.5695 26.5118 66.1994 28.3313C65.8294 30.12 64.0407 32.6488 62.9922 33.6973C57.8729 34.9309 46.5549 31.9087 40.017 32.0937C37.519 32.1554 37.9508 34.3141 38.8451 35.0851L36.7789 38.1073H33.7875C32.1838 37.6447 31.5979 35.1776 31.3203 33.944C31.382 33.1422 31.968 30.8293 33.9725 29.1023C37.9816 25.6483 54.018 27.2211 55.4366 27.2211C56.8552 27.2211 56.4851 26.5426 55.6216 26.2651C54.1105 25.895 49.5154 24.6615 46.8324 24.5689C46.2157 22.7803 45.0746 21.485 44.7045 19.7272C44.3962 18.2161 44.7971 16.3657 45.3213 15.2247C46.0306 13.0351 44.5195 13.3743 43.9952 13.9911C43.2859 15.0396 41.4973 17.3526 41.4048 19.0487C41.3122 20.7449 43.0701 23.798 43.5327 24.5381C42.6692 24.5381 41.158 24.6306 40.5104 24.6306C35.9154 20.7449 27.7122 18.1236 26.1085 17.5685C26.3861 16.7975 26.8178 15.9957 27.0954 15.0705C27.3729 14.1145 27.9589 14.2995 28.6065 14.5154C29.5625 14.978 34.0033 16.6124 35.422 17.1675C36.8406 17.7226 38.1666 17.4451 38.8143 16.89C39.4619 16.3349 41.6515 14.4229 42.6075 13.0968C43.5635 11.7707 42.0524 11.6782 41.4664 12.3258C39.6778 13.9911 37.0256 14.8854 35.607 14.6079C34.1884 14.3303 29.655 12.0482 28.514 11.2773C25.9543 10.1362 25.0292 11.9557 24.7208 12.9734C23.0554 17.7535 20.3724 20.0356 18.4296 21.4542C17.8745 21.9168 15.3148 23.4279 14.5438 23.9213C13.8962 24.3531 13.4645 23.6438 13.742 23.212C14.2971 22.7803 16.3942 20.6524 16.5175 19.8814C16.9801 17.1367 16.24 16.2424 15.0989 15.0088C13.9579 13.7752 12.5085 13.3435 10.8123 13.3435C9.11615 13.3435 7.51251 14.9163 6.92657 15.4714C6.34062 16.0265 7.08076 17.1675 6.12475 17.846C5.16873 18.5245 4.08936 16.7666 3.53426 15.9957C4.76783 14.5771 4.67531 13.8986 4.39776 12.5725C4.79866 12.2641 5.44629 11.524 6.2481 10.8147C6.89573 11.1847 8.22181 11.3698 9.08531 11.1847C13.6803 10.8147 14.4822 11.3389 15.4999 11.8015C16.5484 12.2641 16.8568 11.6165 16.4867 10.938C15.9933 10.0437 15.5924 9.70447 14.6364 8.74845L16.4867 8.19335C18.5529 8.19335 20.65 8.96433 21.6985 9.05684C22.7471 9.14936 23.3947 9.14936 23.7647 8.37838C24.4124 6.37384 25.6459 6.00377 26.5094 5.72621C27.3729 5.44866 28.0206 4.67768 27.2804 4.49265H25.3992C23.7956 4.58517 23.7031 5.17111 23.2096 5.72621C22.7471 6.28132 22.1611 6.95978 20.9275 6.77475C19.694 6.58971 17.1035 6.15796 15.5924 6.25048C14.4205 6.31216 12.7243 7.54572 9.3937 7.42237C10.7198 4.09174 22.9938 2.76566 25.3684 2.67314C41.0655 1.99468 44.3653 2.76566 51.5508 4.27677C58.7364 5.78789 69.5301 9.3344 90.254 17.5685C109.929 25.4016 148.108 44.6452 156.928 52.5092C157.422 53.0026 160.321 55.038 163.559 55.038H170.374C172.07 55.038 172.533 56.6108 172.533 57.351C172.564 58.1836 172.132 60.219 170.713 60.219Z" fill="white"/>
</svg>
