<svg width="175" height="78" viewBox="0 0 175 78" fill="none" xmlns="http://www.w3.org/2000/svg">
<path d="M87.3334 1.26362C86.3149 5.85621 85.9815 6.63399 84.0926 8.78214C83.3704 9.63399 82.7778 10.3562 82.7778 10.4118C82.7778 10.5229 84.4074 9.87473 85.5556 9.30066C86.3889 8.87473 86.5 8.85621 86.6111 9.13399C86.7963 9.61547 86.5186 14.7081 86.1852 16.6155C85.6852 19.5784 84.3519 22.9858 82.5 26.0044L82.0186 26.8007H83.5926H85.1852L85.8889 25.3562C86.2963 24.5784 86.7963 23.3747 87.0186 22.671C87.2593 21.9858 87.463 21.4303 87.5 21.4303C87.5371 21.4303 87.6852 21.8747 87.8519 22.3933C88 22.9303 88.5 24.1525 88.963 25.0784L89.7963 26.8007H91.4074H93L92.6667 26.2821C89.6297 21.6525 88.1852 16.3933 88.3704 10.634L88.426 8.83769L89.6297 9.41177C91.0556 10.097 92.2223 10.5229 92.2223 10.3747C92.2223 10.3192 91.7593 9.76362 91.1667 9.15251C89.2593 7.07843 88.6297 5.81918 87.9815 2.81918C87.7593 1.81918 87.5371 0.948805 87.5 0.911768C87.463 0.856213 87.3889 1.02288 87.3334 1.26362Z" fill="white"/>
<path d="M70.5557 9.48596C70.5557 9.54152 70.9631 10.2082 71.4631 10.9489C74.1483 14.9304 75.1853 18.3749 75.8334 25.4489L75.9631 26.8008H77.3334C78.9631 26.8008 78.889 27.0415 78.3334 23.7452C77.7038 19.9119 76.9816 17.6711 75.4631 14.6897L74.6483 13.0971H75.1483C75.426 13.0971 76.1853 13.3563 76.8334 13.6526C77.4816 13.9674 78.0557 14.1711 78.0927 14.1341C78.2594 13.986 75.6483 11.486 74.6297 10.8193C73.5186 10.0786 71.7779 9.39337 71.0186 9.39337C70.7594 9.39337 70.5557 9.4304 70.5557 9.48596Z" fill="white"/>
<path d="M102.407 9.76362C101.852 9.96732 100.944 10.4303 100.37 10.8192C99.3518 11.4858 96.7407 13.9858 96.9074 14.134C96.9444 14.171 97.5185 13.9673 98.1666 13.6525C98.8148 13.3562 99.5741 13.097 99.8333 13.097H100.333L99.3518 15.0784C98.8148 16.1895 98.1666 17.7081 97.9074 18.4673C97.3889 19.9858 96.5741 23.7821 96.3704 25.634L96.2407 26.8007H97.6481H99.037L99.1666 25.5414C99.7963 18.5599 100.907 14.8377 103.5 11.0044C104.018 10.2266 104.444 9.5414 104.444 9.48584C104.444 9.28214 103.37 9.43029 102.407 9.76362Z" fill="white"/>
<path d="M74.6299 28.0044V28.4674H87.5188H100.389L100.334 28.0415L100.278 27.6341L87.4632 27.5785L74.6299 27.5415V28.0044Z" fill="white"/>
<path d="M75.9258 29.8563V30.3192H87.4999H99.0739V29.8563V29.3933H87.4999H75.9258V29.8563Z" fill="white"/>
<path d="M74.6299 31.7081V32.171H87.5003H100.371V31.7081V31.2451H87.5003H74.6299V31.7081Z" fill="white"/>
<path d="M76.0554 33.0415C75.9813 33.097 75.9258 33.56 75.9258 34.0415C75.9258 34.8378 75.9813 34.9489 76.3702 35.06C76.9999 35.2081 78.0924 34.8192 78.4258 34.3378C78.5739 34.1155 78.7036 33.7081 78.7036 33.4304C78.7036 32.9118 78.7036 32.9118 77.4443 32.9118C76.7406 32.9118 76.111 32.9674 76.0554 33.0415Z" fill="white"/>
<path d="M81.2961 33.134C82.9257 33.8007 83.3701 34.0785 83.8887 34.7822C84.185 35.2081 84.4813 35.8563 84.5553 36.2266C84.7961 37.6525 84.5553 37.5414 87.4998 37.5414C90.4442 37.5414 90.2035 37.6525 90.4442 36.2266C90.5183 35.8563 90.8146 35.2081 91.1109 34.7822C91.6294 34.0785 92.0739 33.8007 93.7035 33.134C94.0368 32.9859 92.2405 32.9303 87.4998 32.9303C82.759 32.9303 80.9627 32.9859 81.2961 33.134Z" fill="white"/>
<path d="M96.3518 33.56C96.4074 33.9303 96.5555 34.3563 96.6666 34.4859C96.9815 34.8748 98.0926 35.1896 98.6296 35.06C99.0555 34.9489 99.0926 34.8748 99.037 33.9674L98.9815 33.0044L97.6111 32.9489L96.2407 32.8933L96.3518 33.56Z" fill="white"/>
<path d="M83.5929 38.5414C83.5374 38.6896 83.5189 39.1155 83.5559 39.5044L83.6114 40.2266L87.4633 40.2822L91.2966 40.3192V39.3007V38.2822H87.5003C84.4077 38.2822 83.667 38.3377 83.5929 38.5414Z" fill="white"/>
<path d="M84.6299 43.0044V44.9489H87.5003H90.3706V43.0044V41.06H87.5003H84.6299V43.0044Z" fill="white"/>
<path d="M39.4443 58.5414C39.4443 58.5599 39.5369 58.8562 39.648 59.1896C39.8332 59.7266 39.6295 60.3377 36.9073 67.1155C33.8332 74.8192 33.5554 75.3377 32.3517 75.6525C31.9443 75.7636 31.7406 75.9303 31.7036 76.2081C31.648 76.6155 31.648 76.6155 35.1851 76.6155H38.7221L38.6665 76.2081C38.6295 75.8562 38.4628 75.7636 37.7221 75.6525C37.2221 75.597 36.611 75.3933 36.3517 75.2266C35.9258 74.9303 35.8888 74.8192 35.9814 73.9488C36.0369 73.4303 36.3888 72.1525 36.7777 71.097L37.4814 69.2081L40.4258 69.2451L43.3888 69.3007L44.1851 71.5229C45.1295 74.1896 45.2221 75.1525 44.5369 75.4673C44.2777 75.597 43.8702 75.6896 43.648 75.6896C42.8702 75.6896 42.4073 75.9118 42.4073 76.2636C42.4073 76.597 42.611 76.6155 46.6665 76.6155C50.7962 76.6155 50.9258 76.597 50.9258 76.2451C50.9258 76.0229 50.7777 75.8562 50.5184 75.8007C50.2777 75.7451 49.8517 75.671 49.5739 75.597C49.2777 75.5414 48.9258 75.2636 48.7406 74.9488C48.5554 74.6525 47.0739 70.8192 45.4443 66.4303L42.4999 58.4673H40.9814C40.1295 58.4673 39.4443 58.5044 39.4443 58.5414ZM41.7406 64.9488C42.3147 66.5229 42.7777 67.8377 42.7777 67.8562C42.7777 67.8933 41.7406 67.9118 40.4628 67.9118C39.1851 67.9118 38.148 67.8562 38.148 67.7821C38.148 67.3747 40.4628 61.8192 40.5739 61.9303C40.648 62.0044 41.1851 63.3747 41.7406 64.9488Z" fill="white"/>
<path d="M60.9261 58.634C59.1299 59.2266 57.9447 60.3562 57.4817 61.9303C56.778 64.3192 58.1484 66.3192 62.2039 68.8192C64.5558 70.2822 65.6484 71.3192 65.9261 72.3748C66.3336 73.8562 65.741 75.2081 64.4076 75.8562C63.2965 76.3933 62.1484 76.3562 60.9632 75.7636C59.8891 75.2266 59.2595 74.5599 58.5928 73.2636C58.241 72.5414 58.0558 72.3562 57.6854 72.3562C57.2595 72.3562 57.2224 72.4118 57.315 73.0414C57.5187 74.6155 57.778 76.6525 57.778 76.8192C57.778 77.0414 58.4632 77.0414 58.6113 76.8007C58.778 76.5414 59.5928 76.5785 60.6484 76.9118C61.9261 77.3192 63.9447 77.3007 65.1669 76.8933C67.9632 75.9674 69.315 72.597 67.9817 69.9118C67.3891 68.7266 66.5928 68.0229 63.9632 66.2822C59.9261 63.6155 59.278 62.7081 60.1113 60.9488C60.5373 60.0599 61.4076 59.5785 62.5743 59.5785C64.2224 59.5785 65.4632 60.4859 66.3521 62.3007C66.6484 62.9118 66.8521 63.097 67.1854 63.097H67.6299L67.5002 61.3748C67.4447 60.4488 67.3336 59.5229 67.2965 59.3377C67.1854 58.9859 66.4817 58.9118 66.1854 59.2081C66.0373 59.3562 65.6854 59.3007 65.0187 59.0229C63.9447 58.6155 61.6669 58.3933 60.9261 58.634Z" fill="white"/>
<path d="M127.593 58.5414C127.593 58.5599 127.685 58.8562 127.797 59.1525C127.963 59.671 127.722 60.3933 125.185 66.8192C123.63 70.7266 122.222 74.1896 122.019 74.5044C121.685 75.0599 121.019 75.4858 120.056 75.7821C119.797 75.8562 119.63 76.0414 119.63 76.2636C119.63 76.597 119.797 76.6155 123.26 76.6155H126.871L126.815 76.2081C126.778 75.8562 126.611 75.7636 125.871 75.6525C123.815 75.3747 123.648 74.7081 124.852 71.3747L125.63 69.2081L128.574 69.2451L131.519 69.3007L132.334 71.597C132.778 72.8562 133.148 74.1525 133.148 74.5044C133.148 75.1896 132.611 75.6896 131.852 75.6896C131.019 75.6896 130.556 75.9118 130.556 76.2636C130.556 76.597 130.76 76.6155 134.815 76.6155C138.871 76.6155 139.074 76.597 139.074 76.2636C139.074 75.8747 138.722 75.6896 138.037 75.6896C137.778 75.6896 137.389 75.5044 137.148 75.2636C136.889 75.0044 135.648 71.9303 133.685 66.6525L130.648 58.4673H129.13C128.278 58.4673 127.593 58.5044 127.593 58.5414ZM129.797 64.634C130.352 66.171 130.834 67.5599 130.889 67.671C130.945 67.8562 130.426 67.9118 128.63 67.9118C127.352 67.9118 126.297 67.8747 126.297 67.8192C126.297 67.5784 128.593 61.8007 128.685 61.8007C128.741 61.8007 129.241 63.0784 129.797 64.634Z" fill="white"/>
<path d="M142.518 59.5229C142.148 63.3192 142.148 63.097 142.648 63.097C143.037 63.097 143.129 62.9488 143.426 61.9858C143.926 60.3192 144.074 60.2451 146.778 60.171L149.074 60.097V67.4488V74.7821L148.611 75.2266C148.278 75.5784 147.963 75.6896 147.37 75.6896C146.222 75.6896 145.74 75.8562 145.74 76.2636C145.74 76.597 145.963 76.6155 150.648 76.6155C155.333 76.6155 155.555 76.597 155.555 76.2636C155.555 75.8562 155.074 75.6896 153.926 75.6896C153.333 75.6896 153.018 75.5784 152.685 75.2266L152.222 74.7821V67.4488V60.097L154.555 60.171C157.24 60.2451 157.333 60.2821 157.907 62.097C158.166 62.9488 158.278 63.097 158.666 63.097C159.092 63.097 159.111 63.0599 159.018 62.2081C158.944 61.7266 158.852 60.6896 158.778 59.8933C158.666 58.7081 158.592 58.4673 158.333 58.4673C158.148 58.4673 157.907 58.597 157.778 58.7451C157.574 58.9858 156.555 59.0229 150.648 59.0229C144.74 59.0229 143.722 58.9858 143.518 58.7451C143.389 58.597 143.148 58.4673 142.963 58.4673C142.685 58.4673 142.611 58.671 142.518 59.5229Z" fill="white"/>
<path d="M101.944 58.9303C101.74 58.9673 100.852 59.0599 99.9626 59.1155C98.4256 59.2266 98.333 59.2636 98.333 59.671C98.333 60.0414 98.4441 60.0969 99.3886 60.2081C101.222 60.4303 101.111 59.9118 101.111 67.9118V74.8932L100.703 75.2821C100.444 75.5044 99.9071 75.7081 99.3145 75.8007C98.5182 75.8932 98.333 75.9858 98.333 76.2636C98.333 76.5969 98.5552 76.6155 102.87 76.6155C107.277 76.6155 107.407 76.5969 107.407 76.2451C107.407 75.9303 107.277 75.8747 106.592 75.8747C105.37 75.8747 104.685 75.5599 104.463 74.9118C104.352 74.5969 104.259 73.1895 104.259 71.7821V69.2081H105.537H106.814L108.074 71.4673C110.185 75.2081 111.87 76.6525 114.407 76.9118C115.537 77.0414 115.555 77.0229 115.555 76.5969C115.555 76.2451 115.389 76.0784 114.722 75.8192C113.703 75.3932 113 74.4858 111.611 71.7081C111.037 70.5784 110.37 69.4303 110.129 69.134L109.685 68.5784L110.722 68.0784C112.574 67.1895 113.333 66.0044 113.333 63.9303C113.333 61.6525 112.129 60.171 109.648 59.3747C108.648 59.0414 107.87 58.9673 105.37 58.9303C103.685 58.8932 102.148 58.8932 101.944 58.9303ZM108.092 60.3377C108.648 60.6155 109.185 61.0784 109.537 61.5784C110.055 62.3377 110.092 62.5044 110.092 64.0969C110.092 65.6525 110.055 65.8747 109.592 66.5784C108.852 67.6895 108.185 67.9673 106.074 68.0599L104.259 68.134V64.0599C104.259 59.3932 104.111 59.7451 106.055 59.8377C106.796 59.8747 107.537 60.0599 108.092 60.3377Z" fill="white"/>
<path d="M1.66667 59.4858C1.66667 59.8933 1.74074 59.9488 2.2963 59.9488C3.14815 59.9488 3.81481 60.2266 4.05556 60.6525C4.18519 60.8933 4.07407 62.9673 3.7037 67.6525C3.38889 71.3007 3.09259 74.4303 3.03704 74.6155C2.87037 75.134 2.03704 75.6896 1.40741 75.6896C0.462963 75.6896 0 75.8933 0 76.2636C0 76.597 0.203704 76.6155 3.51852 76.6155C6.88889 76.6155 7.03704 76.597 7.03704 76.2451C7.03704 75.9488 6.87037 75.8562 6.12963 75.7636C5.61111 75.6896 5.03704 75.4858 4.81482 75.2821C4.48148 74.9673 4.44444 74.7821 4.53704 73.9673C4.59259 73.4303 4.85185 70.5044 5.09259 67.4673C5.35185 64.4118 5.57407 61.8933 5.61111 61.8747C5.64815 61.8377 7.07407 65.134 8.81481 69.2081C11.7407 76.134 11.9815 76.6155 12.4074 76.6155C12.8333 76.6155 13.0741 76.134 16.1111 69.2081L19.3519 61.8007L19.4815 62.671C19.537 63.171 19.7407 66.0784 19.9074 69.171C20.2222 74.5229 20.2222 74.7821 19.9074 75.134C19.7222 75.3377 19.2778 75.5414 18.9074 75.597C17.537 75.8192 17.4074 75.8747 17.4074 76.2451C17.4074 76.597 17.537 76.6155 21.6667 76.6155C25.7963 76.6155 25.9259 76.597 25.9259 76.2451C25.9259 75.9858 25.7963 75.8747 25.5185 75.8747C24.5 75.8747 23.6852 75.4858 23.4259 74.8933C23.1852 74.3007 22.4074 64.2821 22.4074 61.7451C22.4074 60.2821 22.7222 59.9488 24.1296 59.9488C24.9444 59.9488 25.0185 59.9118 24.963 59.5229C24.9074 59.1155 24.8704 59.1155 21.9815 59.1155H19.037L16.2963 65.4118C14.7778 68.8747 13.4815 71.8192 13.3889 71.9488C13.2963 72.097 12.2222 69.8007 10.4444 65.6525L7.64815 59.1155L4.64815 59.0599L1.66667 59.0229V59.4858Z" fill="white"/>
<path d="M76.1108 59.4673C76.1108 59.8562 76.2034 59.9118 77.1664 59.9858C78.9627 60.134 78.8886 59.7821 78.8886 67.8192C78.8886 74.4488 78.8701 74.7266 78.5182 75.1896C78.222 75.5599 77.9071 75.6896 77.1294 75.7821C76.296 75.8933 76.1108 75.9858 76.1108 76.2636C76.1108 76.597 76.3886 76.6155 83.4997 76.6155H90.8886L90.9997 74.8007C91.0738 73.8192 91.1849 72.8562 91.2405 72.671C91.3145 72.3933 91.2405 72.3377 90.8331 72.3933C90.4071 72.4303 90.259 72.6155 89.9812 73.3933C89.222 75.3933 88.3886 75.7636 84.7775 75.6525C82.9071 75.6155 82.3516 75.5414 82.222 75.3192C82.1294 75.171 82.0368 73.5229 82.0368 71.6525V68.2821H84.7775C87.9627 68.2821 88.1294 68.3562 88.2775 69.634C88.3701 70.3933 88.4257 70.5044 88.8145 70.5044H89.259V67.7081C89.259 64.9488 89.259 64.9303 88.8516 64.9858C88.5368 65.0229 88.4071 65.2266 88.296 65.7636C88.0182 67.1155 87.8886 67.171 84.7775 67.171H82.0368V63.634V60.1155L84.9812 60.171C87.8145 60.2266 87.9442 60.2451 88.4257 60.6896C88.6849 60.9303 89.0368 61.5784 89.1849 62.1155C89.4071 62.8562 89.5553 63.097 89.8331 63.097C90.1479 63.097 90.1849 62.9488 90.1849 61.3562C90.1849 60.3933 90.1294 59.4858 90.0738 59.3192C89.9812 59.0599 89.1849 59.0229 83.0368 59.0229H76.1108V59.4673Z" fill="white"/>
<path d="M165.741 59.4673C165.741 59.8562 165.852 59.9118 166.778 60.0414C168.333 60.2266 168.63 60.6155 168.796 62.6525C168.889 63.5599 168.889 66.5229 168.833 69.2266C168.704 75.5044 168.685 75.5784 166.667 75.7266C166.148 75.7636 166 75.8747 165.963 76.1896L165.907 76.6155H170.444C174.796 76.6155 175 76.597 175 76.2636C175 75.8933 174.667 75.6896 174 75.6896C173.204 75.6896 172.407 75.2821 172.13 74.7451C171.722 73.9858 171.722 61.9118 172.111 60.9673C172.389 60.3192 173.167 59.9488 174.315 59.9488C174.722 59.9488 174.815 59.8747 174.815 59.4858V59.0229H170.278H165.741V59.4673Z" fill="white"/>
</svg>
