<svg width="65" height="65" viewBox="0 0 65 65" fill="none" xmlns="http://www.w3.org/2000/svg">
<path d="M47.6125 3.65625C43.0625 1.3 37.9437 0 32.5 0C27.0562 0 21.9375 1.3 17.3875 3.65625C7.06875 9.1 0 19.9875 0 32.5C0 45.0125 7.06875 55.9 17.4688 61.3438C21.9375 63.6188 27.0562 65 32.5 65C37.9437 65 42.9813 63.6188 47.5312 61.2625C57.9313 55.9 65 45.0125 65 32.5C65 19.9875 57.9312 9.1 47.6125 3.65625ZM3.25 32.5C3.25 21.8562 8.9375 12.5938 17.4688 7.39375C21.6125 4.875 26.4062 3.4125 31.6875 3.25L28.0312 29.8188L17.4688 38.025L6.74375 46.3937C4.55 42.25 3.25 37.5375 3.25 32.5ZM47.6125 57.525C43.1437 60.2063 38.025 61.75 32.5 61.75C26.975 61.75 21.775 60.2063 17.3875 57.525C13.4062 55.1688 10.1562 51.9188 7.71875 48.0187L17.3875 44.0375L32.5 37.8625L47.6125 43.9562L57.3625 47.9375C54.925 51.9188 51.5125 55.1688 47.6125 57.525ZM47.6125 38.025L37.1313 29.9L33.3937 3.25C38.5125 3.4125 43.3875 4.875 47.5312 7.39375C56.0625 12.5125 61.75 21.8562 61.75 32.5C61.75 37.5375 60.5312 42.25 58.2562 46.3937L47.6125 38.025Z" fill="white"/>
</svg>
