<?xml version="1.0" encoding="UTF-8"?>
<svg xmlns="http://www.w3.org/2000/svg" xmlns:xlink="http://www.w3.org/1999/xlink" width="255pt" height="53pt" viewBox="0 0 255 53" version="1.1">
<g id="surface1">
<path style=" stroke:none;fill-rule:evenodd;fill:rgb(92.89856%,10.998535%,14.099121%);fill-opacity:1;" d="M 109.0625 24.832031 C 109.0625 24.832031 111.175781 20.523438 111.777344 18.253906 C 112.382813 15.984375 111.175781 13.640625 106.34375 13.109375 C 101.511719 12.582031 89.886719 12.507813 85.507813 12.960938 C 81.128906 13.414063 78.335938 16.136719 75.917969 19.992188 C 73.503906 23.847656 70.03125 30.503906 68.898438 33.832031 C 67.765625 37.160156 68.445313 40.410156 73.128906 40.941406 C 77.808594 41.46875 92.300781 41.394531 96.378906 40.710938 C 100.453125 40.03125 103.777344 35.34375 105.136719 32.546875 C 105.496094 31.804688 105.941406 30.914063 106.402344 30.007813 L 91.550781 30.007813 C 91.28125 30.472656 91.023438 30.878906 90.78125 31.207031 C 89.605469 32.800781 87.84375 33.5625 86.25 33.179688 C 84.660156 32.800781 85.074219 30.511719 85.972656 28.746094 C 86.871094 26.976563 88.984375 22.128906 90.746094 20.707031 C 92.511719 19.285156 96.074219 19.527344 94.792969 22.855469 C 94.539063 23.519531 94.269531 24.1875 93.996094 24.847656 L 109.054688 24.847656 Z M 147.546875 24.832031 C 147.546875 24.832031 149.660156 20.523438 150.265625 18.253906 C 150.871094 15.984375 149.660156 13.640625 144.828125 13.109375 C 140 12.582031 128.371094 12.507813 123.996094 12.960938 C 119.617188 13.414063 116.824219 16.136719 114.40625 19.992188 C 111.992188 23.847656 108.519531 30.503906 107.386719 33.832031 C 106.253906 37.160156 106.933594 40.410156 111.613281 40.941406 C 116.292969 41.46875 130.789063 41.394531 134.863281 40.710938 C 138.941406 40.03125 142.261719 35.34375 143.621094 32.546875 C 144.980469 29.746094 147.546875 24.832031 147.546875 24.832031 Z M 132.898438 23.886719 C 131.621094 27.210938 130.0625 30.644531 128.886719 32.238281 C 127.710938 33.832031 125.945313 34.59375 124.355469 34.210938 C 122.765625 33.832031 123.179688 31.542969 124.078125 29.777344 C 124.980469 28.007813 127.089844 23.160156 128.851563 21.738281 C 130.617188 20.316406 134.179688 20.558594 132.898438 23.886719 Z M 218.828125 13.972656 L 203.890625 41.320313 L 189.917969 41.320313 L 189.433594 39.996094 C 189.433594 39.996094 185.699219 42.285156 180.277344 42.042969 C 174.859375 41.800781 170.640625 39.753906 172.691406 34.09375 C 174.738281 28.429688 180.277344 18.429688 183.773438 15.78125 C 187.265625 13.128906 196.300781 11.925781 202.808594 15.902344 L 203.890625 14.09375 Z M 145.464844 41.320313 L 159.800781 41.320313 C 159.800781 41.320313 166.320313 29.933594 171.1875 21.441406 L 177.148438 21.441406 L 181.242188 14.09375 L 175.402344 14.09375 C 175.84375 13.324219 176.15625 12.78125 176.304688 12.527344 C 177.628906 10.238281 179.558594 9.878906 183.171875 10.238281 L 187.628906 2.167969 L 171.726563 2.167969 C 171.726563 2.167969 166.546875 1.683594 163.894531 7.347656 C 163.296875 8.628906 162.019531 11.078125 160.40625 14.09375 L 154.859375 14.09375 L 150.882813 21.441406 L 156.429688 21.441406 C 151.269531 30.902344 145.464844 41.320313 145.464844 41.320313 Z M 198.074219 23.886719 C 196.796875 27.210938 195.238281 30.644531 194.0625 32.238281 C 192.886719 33.832031 191.121094 34.59375 189.53125 34.210938 C 187.941406 33.832031 188.355469 31.542969 189.253906 29.777344 C 190.152344 28.007813 192.265625 23.160156 194.027344 21.738281 C 195.792969 20.316406 199.355469 20.558594 198.074219 23.886719 Z M 237.808594 23.886719 C 236.53125 27.210938 234.972656 30.644531 233.796875 32.238281 C 232.621094 33.832031 230.855469 34.59375 229.265625 34.210938 C 227.675781 33.832031 228.089844 31.542969 228.988281 29.777344 C 229.890625 28.007813 232 23.160156 233.761719 21.738281 C 235.527344 20.316406 239.089844 20.558594 237.808594 23.886719 Z M 238.324219 15.300781 L 238.234375 13.605469 L 224.125 13.605469 L 201.804688 52.804688 L 216.808594 52.804688 L 224.214844 39.769531 C 224.214844 39.769531 226.445313 42.179688 232.964844 42.269531 C 239.484375 42.359375 244.039063 39.234375 246.179688 35.480469 C 248.324219 31.730469 252.253906 25.214844 253.769531 21.730469 C 255.289063 18.25 254.355469 14.367188 248.679688 13.695313 C 243.007813 13.027344 238.324219 15.390625 238.324219 15.300781 Z M 72.121094 0.90625 L 26.59375 0.90625 L 0.480469 26.832031 L 26.59375 52.753906 L 72.121094 52.753906 L 46.011719 26.832031 Z M 13.28125 15.09375 L 33.894531 15.09375 L 45.714844 26.832031 L 33.894531 38.566406 L 13.28125 38.566406 L 25.105469 26.832031 L 13.28125 15.09375 "/>
</g>
</svg>
